<mxfile host="app.diagrams.net" modified="2024-04-15T09:54:04.151Z" agent="Mozilla/5.0 (Windows NT 10.0; Win64; x64) AppleWebKit/537.36 (KHTML, like Gecko) Chrome/123.0.0.0 Safari/537.36" etag="emmCZJngHgHaEYYGmJPK" version="24.2.5" type="github">
  <diagram name="页-1" id="Page-1">
    <mxGraphModel dx="2074" dy="1106" grid="1" gridSize="10" guides="1" tooltips="1" connect="1" arrows="1" fold="1" page="1" pageScale="1" pageWidth="827" pageHeight="1169" math="0" shadow="0">
      <root>
        <mxCell id="0" />
        <mxCell id="1" parent="0" />
        <UserObject label="&lt;div style=&quot;font-size: 1px&quot;&gt;&lt;font style=&quot;font-size:19.76px;font-family:SimSun;color:#000000;direction:ltr;letter-spacing:0px;line-height:120%;opacity:1&quot;&gt;&lt;b&gt;Stacking-In&lt;/b&gt;&lt;/font&gt;&lt;font style=&quot;font-size:19.76px;font-family:SimSun;color:#000000;direction:ltr;letter-spacing:0px;line-height:120%;opacity:1&quot;&gt;&lt;b&gt;SAR&lt;/b&gt;&lt;/font&gt;&lt;font style=&quot;font-size:19.76px;font-family:SimSun;color:#000000;direction:ltr;letter-spacing:0px;line-height:120%;opacity:1&quot;&gt;&lt;b&gt;和&lt;/b&gt;&lt;/font&gt;&lt;font style=&quot;font-size:19.76px;font-family:SimSun;color:#000000;direction:ltr;letter-spacing:0px;line-height:120%;opacity:1&quot;&gt;&lt;b&gt;SBAS-InSAR处理与识别流程&lt;/b&gt;&lt;/font&gt;&lt;font style=&quot;font-size:11.29px;font-family:Themed;color:#000000;direction:ltr;letter-spacing:0px;line-height:120%;opacity:1&quot;&gt;&lt;br/&gt;&lt;/font&gt;&lt;/div&gt;" tags="流程图" id="2">
          <mxCell style="verticalAlign=middle;align=center;overflow=width;vsdxID=53;fillColor=#FFFFFF;gradientColor=none;shape=stencil(nZBLDoAgDERP0z3SIyjew0SURgSD+Lu9kMZoXLhwN9O+tukAlrNpJg1SzDH4QW/URgNYgZTkjA4UkwJUgGXng+6DX1zLfmoymdXo17xh5zmRJ6Q42BWCfc2oJfdAr+Yv+AP9Cb7OJ3H/2JG1HNGz/84klThPVCc=);strokeColor=#000000;spacingTop=-1;spacingBottom=-1;spacingLeft=-1;spacingRight=-1;points=[[1,0.5,0],[0.5,0.5,0],[0.5,0,0]];labelBackgroundColor=none;rounded=0;html=1;whiteSpace=wrap;" parent="1" vertex="1">
            <mxGeometry x="1788" y="53" width="411" height="50" as="geometry" />
          </mxCell>
        </UserObject>
        <UserObject label="&lt;div style=&quot;font-size: 1px&quot;&gt;&lt;font style=&quot;font-size:16.93px;font-family:SimSun;color:#000000;direction:ltr;letter-spacing:0px;line-height:120%;opacity:1&quot;&gt;筛选干涉对&lt;/font&gt;&lt;font style=&quot;font-size:11.29px;font-family:Themed;color:#000000;direction:ltr;letter-spacing:0px;line-height:120%;opacity:1&quot;&gt;&lt;br/&gt;&lt;/font&gt;&lt;/div&gt;" tags="流程图" id="3">
          <mxCell style="verticalAlign=middle;align=center;overflow=width;vsdxID=76;fillColor=#FFFFFF;gradientColor=none;shape=stencil(rVJBEoIwDHxNjzClnXbGM+I/OlKgY6VMqAK/txjRKnLSW7LZZLNtCM/7RnWaMNp7cCc9mNI3hO8JY6ZtNBgfIsILwvPKga7BXdoS807NzDk6u+s8YcQ+mQoxNzE6IUDv2QG51rQRN6N0m6rgGCrwoAqRyh2SYVq6ZcokYhsDn/mYqNH0CTivvHFtLEetglonQS6prKrfSv2gdbeCv3pZ+V60f7Cz8Zb/cpPF+4Xg9aWVsRYvIq5/nkCA8Hx4cQM=);strokeColor=#000000;spacingTop=-1;spacingBottom=-1;spacingLeft=-1;spacingRight=-1;points=[[0,0.5,0],[0.5,0,0],[0.5,1,0],[0.93,0.5,0]];labelBackgroundColor=none;rounded=0;html=1;whiteSpace=wrap;" parent="1" vertex="1">
            <mxGeometry x="1620" y="366" width="114" height="60" as="geometry" />
          </mxCell>
        </UserObject>
        <UserObject label="&lt;div style=&quot;font-size: 1px&quot;&gt;&lt;font style=&quot;font-size:16.93px;font-family:SimSun;color:#000000;direction:ltr;letter-spacing:0px;line-height:120%;opacity:1&quot;&gt;再差分干涉&lt;/font&gt;&lt;font style=&quot;font-size:11.29px;font-family:Themed;color:#000000;direction:ltr;letter-spacing:0px;line-height:120%;opacity:1&quot;&gt;&lt;br/&gt;&lt;/font&gt;&lt;/div&gt;" tags="流程图" id="4">
          <mxCell style="verticalAlign=middle;align=center;overflow=width;vsdxID=77;fillColor=#FFFFFF;gradientColor=none;shape=stencil(rVJBEoIwDHxNjzClnXbGM+I/OlKgY6VMqAK/txjRKnLSW7LZZLNtCM/7RnWaMNp7cCc9mNI3hO8JY6ZtNBgfIsILwvPKga7BXdoS807NzDk6u+s8YcQ+mQoxNzE6IUDv2QG51rQRN6N0m6rgGCrwoAqRyh2SYVq6ZcokYhsDn/mYqNH0CTivvHFtLEetglonQS6prKrfSv2gdbeCv3pZ+V60f7Cz8Zb/cpPF+4Xg9aWVsRYvIq5/nkCA8Hx4cQM=);strokeColor=#000000;spacingTop=-1;spacingBottom=-1;spacingLeft=-1;spacingRight=-1;points=[[0,0.5,0],[0.5,0,0],[0.5,1,0],[0.93,0.5,0]];labelBackgroundColor=none;rounded=0;html=1;whiteSpace=wrap;" parent="1" vertex="1">
            <mxGeometry x="1892" y="366" width="114" height="60" as="geometry" />
          </mxCell>
        </UserObject>
        <UserObject label="&lt;div style=&quot;font-size: 1px&quot;&gt;&lt;font style=&quot;font-size:16.93px;font-family:SimSun;color:#000000;direction:ltr;letter-spacing:0px;line-height:120%;opacity:1&quot;&gt;再滤波&lt;/font&gt;&lt;font style=&quot;font-size:11.29px;font-family:Themed;color:#000000;direction:ltr;letter-spacing:0px;line-height:120%;opacity:1&quot;&gt;&lt;br/&gt;&lt;/font&gt;&lt;/div&gt;" tags="流程图" id="5">
          <mxCell style="verticalAlign=middle;align=center;overflow=width;vsdxID=78;fillColor=#FFFFFF;gradientColor=none;shape=stencil(rVJBEoIwDHxNjzClnXbGM+I/OlKgY6VMqAK/txjRKnLSW7LZZLNtCM/7RnWaMNp7cCc9mNI3hO8JY6ZtNBgfIsILwvPKga7BXdoS807NzDk6u+s8YcQ+mQoxNzE6IUDv2QG51rQRN6N0m6rgGCrwoAqRyh2SYVq6ZcokYhsDn/mYqNH0CTivvHFtLEetglonQS6prKrfSv2gdbeCv3pZ+V60f7Cz8Zb/cpPF+4Xg9aWVsRYvIq5/nkCA8Hx4cQM=);strokeColor=#000000;spacingTop=-1;spacingBottom=-1;spacingLeft=-1;spacingRight=-1;points=[[0,0.5,0],[0.5,0,0],[0.5,1,0],[0.93,0.5,0]];labelBackgroundColor=none;rounded=0;html=1;whiteSpace=wrap;" parent="1" vertex="1">
            <mxGeometry x="2028" y="366" width="114" height="60" as="geometry" />
          </mxCell>
        </UserObject>
        <UserObject label="&lt;div style=&quot;font-size: 1px&quot;&gt;&lt;font style=&quot;font-size:16.93px;font-family:SimSun;color:#000000;direction:ltr;letter-spacing:0px;line-height:120%;opacity:1&quot;&gt;再解缠&lt;/font&gt;&lt;font style=&quot;font-size:11.29px;font-family:Themed;color:#000000;direction:ltr;letter-spacing:0px;line-height:120%;opacity:1&quot;&gt;&lt;br/&gt;&lt;/font&gt;&lt;/div&gt;" tags="流程图" id="6">
          <mxCell style="verticalAlign=middle;align=center;overflow=width;vsdxID=79;fillColor=#FFFFFF;gradientColor=none;shape=stencil(rVJBEoIwDHxNjzClnXbGM+I/OlKgY6VMqAK/txjRKnLSW7LZZLNtCM/7RnWaMNp7cCc9mNI3hO8JY6ZtNBgfIsILwvPKga7BXdoS807NzDk6u+s8YcQ+mQoxNzE6IUDv2QG51rQRN6N0m6rgGCrwoAqRyh2SYVq6ZcokYhsDn/mYqNH0CTivvHFtLEetglonQS6prKrfSv2gdbeCv3pZ+V60f7Cz8Zb/cpPF+4Xg9aWVsRYvIq5/nkCA8Hx4cQM=);strokeColor=#000000;spacingTop=-1;spacingBottom=-1;spacingLeft=-1;spacingRight=-1;points=[[0,0.5,0],[0.5,0,0],[0.5,1,0],[0.93,0.5,0]];labelBackgroundColor=none;rounded=0;html=1;whiteSpace=wrap;" parent="1" vertex="1">
            <mxGeometry x="2163" y="366" width="114" height="60" as="geometry" />
          </mxCell>
        </UserObject>
        <UserObject label="&lt;div style=&quot;font-size: 1px&quot;&gt;&lt;font style=&quot;font-size:16.93px;font-family:SimSun;color:#000000;direction:ltr;letter-spacing:0px;line-height:120%;opacity:1&quot;&gt;精化基线&lt;/font&gt;&lt;font style=&quot;font-size:11.29px;font-family:Themed;color:#000000;direction:ltr;letter-spacing:0px;line-height:120%;opacity:1&quot;&gt;&lt;br/&gt;&lt;/font&gt;&lt;/div&gt;" tags="流程图" id="7">
          <mxCell style="verticalAlign=middle;align=center;overflow=width;vsdxID=80;fillColor=#FFFFFF;gradientColor=none;shape=stencil(rVJBEoIwDHxNjzClnXbGM+I/OlKgY6VMqAK/txjRKnLSW7LZZLNtCM/7RnWaMNp7cCc9mNI3hO8JY6ZtNBgfIsILwvPKga7BXdoS807NzDk6u+s8YcQ+mQoxNzE6IUDv2QG51rQRN6N0m6rgGCrwoAqRyh2SYVq6ZcokYhsDn/mYqNH0CTivvHFtLEetglonQS6prKrfSv2gdbeCv3pZ+V60f7Cz8Zb/cpPF+4Xg9aWVsRYvIq5/nkCA8Hx4cQM=);strokeColor=#000000;spacingTop=-1;spacingBottom=-1;spacingLeft=-1;spacingRight=-1;points=[[0,0.5,0],[0.5,0,0],[0.5,1,0],[0.93,0.5,0]];labelBackgroundColor=none;rounded=0;html=1;whiteSpace=wrap;" parent="1" vertex="1">
            <mxGeometry x="1756" y="366" width="114" height="60" as="geometry" />
          </mxCell>
        </UserObject>
        <UserObject label="&lt;div style=&quot;font-size: 1px&quot;&gt;&lt;font style=&quot;font-size:16.93px;font-family:SimSun;color:#000000;direction:ltr;letter-spacing:0px;line-height:120%;opacity:1&quot;&gt;&lt;b&gt;第二次差分干涉&lt;/b&gt;&lt;/font&gt;&lt;font style=&quot;font-size:16.93px;font-family:Themed;color:#000000;direction:ltr;letter-spacing:0px;line-height:120%;opacity:1&quot;&gt;（约&lt;/font&gt;&lt;font style=&quot;font-size:16.93px;font-family:Themed;color:#ff0000;direction:ltr;letter-spacing:0px;line-height:120%;opacity:1&quot;&gt;&lt;b&gt;7.5人天&lt;/b&gt;&lt;/font&gt;&lt;font style=&quot;font-size:16.93px;font-family:Themed;color:#000000;direction:ltr;letter-spacing:0px;line-height:120%;opacity:1&quot;&gt;）&lt;/font&gt;&lt;font style=&quot;font-size:11.29px;font-family:Themed;color:#000000;direction:ltr;letter-spacing:0px;line-height:120%;opacity:1&quot;&gt;&lt;br/&gt;&lt;/font&gt;&lt;/div&gt;" tags="流程图" id="8">
          <mxCell style="verticalAlign=middle;align=center;overflow=width;vsdxID=133;fillColor=#FFFFFF;gradientColor=none;shape=stencil(tVJdE4IgEPw1POIg9OG76f9gEpWJwDko7d8HYZNm9tL0tne7dzcLi1huW94JRIl1YE6il5VrETsgSqVuBUjnEWIFYnltQDRgLrqKdceDMqCzuYYNQ5xL90m6CVOU3MYOIY+6jHIl9USe0STbfZNzOHoOltth1G+jfH3hk8d8kBaDcdxJo2ec4tAI7E/hWvFmRtleiG7R/uhlaf0nJ+sv+RcvHrz+tJZKxUhM+fcM+FbMDyvu);strokeColor=#000000;spacingTop=-1;spacingBottom=-1;spacingLeft=-1;spacingRight=-1;points=[[0.5,0,0],[0.5,0.5,0],[1,0.5,0]];labelBackgroundColor=none;rounded=0;html=1;whiteSpace=wrap;" parent="1" vertex="1">
            <mxGeometry x="2298" y="372" width="140" height="48" as="geometry" />
          </mxCell>
        </UserObject>
        <UserObject label="" tags="背景" id="9">
          <mxCell style="vsdxID=155;fillColor=none;gradientColor=none;shape=stencil(nZBLDoAgDERP0z3SIyjew0SURgSD+Lu9kMZoXLhwN9O+tukAlrNpJg1SzDH4QW/URgNYgZTkjA4UkwJUgGXng+6DX1zLfmoymdXo17xh5zmRJ6Q42BWCfc2oJfdAr+Yv+AP9Cb7OJ3H/2JG1HNGz/84klThPVCc=);dashed=1;strokeColor=#000000;points=[];labelBackgroundColor=none;rounded=0;html=1;whiteSpace=wrap;" parent="1" vertex="1">
            <mxGeometry x="1606" y="355" width="847" height="81" as="geometry" />
          </mxCell>
        </UserObject>
        <UserObject label="&lt;div style=&quot;font-size: 1px&quot;&gt;&lt;font style=&quot;font-size:16.93px;font-family:SimSun;color:#000000;direction:ltr;letter-spacing:0px;line-height:120%;opacity:1&quot;&gt;结果编码&lt;/font&gt;&lt;font style=&quot;font-size:11.29px;font-family:Themed;color:#000000;direction:ltr;letter-spacing:0px;line-height:120%;opacity:1&quot;&gt;&lt;br/&gt;&lt;/font&gt;&lt;/div&gt;" tags="流程图" id="10">
          <mxCell style="verticalAlign=middle;align=center;overflow=width;vsdxID=119;fillColor=#FFFFFF;gradientColor=none;shape=stencil(1VNBEoMgDHwNRxyEqT7Atv9gKipTCk6kVX9fKGrVKYceeuhtN9kksyQgVnQNbwWipLNgrqKXpW0QOyJKpW4ESOsQYifEisqAqMHcdRl4y73So5t5+A5DqMuTg6+hZAycvNg5SJXUK2lKSFzK4eIyMEkzluRTXxjn6iyhUyzScOED5oPsMBjLrTR6PY4oDrXAbhyuFK83qa4Xol2F07iXve159Fduso2bzy/5Ey8OvPdZSaXCOSz52LL/boMk6nrn2IH9xbtQ+C3s9AQ=);strokeColor=#000000;spacingTop=-1;spacingBottom=-1;spacingLeft=-1;spacingRight=-1;points=[[0,0.5,0],[0.5,0,0],[0.5,1,0],[1.07,0.5,0],[1,0.5,0]];labelBackgroundColor=none;rounded=0;html=1;whiteSpace=wrap;" parent="1" vertex="1">
            <mxGeometry x="2558" y="507" width="100" height="60" as="geometry" />
          </mxCell>
        </UserObject>
        <UserObject label="&lt;div style=&quot;font-size: 1px&quot;&gt;&lt;font style=&quot;font-size:16.93px;font-family:SimSun;color:#000000;direction:ltr;letter-spacing:0px;line-height:120%;opacity:1&quot;&gt;转TIF&lt;/font&gt;&lt;font style=&quot;font-size:11.29px;font-family:Themed;color:#000000;direction:ltr;letter-spacing:0px;line-height:120%;opacity:1&quot;&gt;&lt;br/&gt;&lt;/font&gt;&lt;/div&gt;" tags="流程图" id="11">
          <mxCell style="verticalAlign=middle;align=center;overflow=width;vsdxID=121;fillColor=#FFFFFF;gradientColor=none;shape=stencil(1VNBEoMgDHwNRxyEqT7Atv9gKipTCk6kVX9fKGrVKYceeuhtN9kksyQgVnQNbwWipLNgrqKXpW0QOyJKpW4ESOsQYifEisqAqMHcdRl4y73So5t5+A5DqMuTg6+hZAycvNg5SJXUK2lKSFzK4eIyMEkzluRTXxjn6iyhUyzScOED5oPsMBjLrTR6PY4oDrXAbhyuFK83qa4Xol2F07iXve159Fduso2bzy/5Ey8OvPdZSaXCOSz52LL/boMk6nrn2IH9xbtQ+C3s9AQ=);strokeColor=#000000;spacingTop=-1;spacingBottom=-1;spacingLeft=-1;spacingRight=-1;points=[[0,0.5,0],[0.5,0,0],[0.5,1,0],[1.07,0.5,0],[1,0.5,0]];labelBackgroundColor=none;rounded=0;html=1;whiteSpace=wrap;" parent="1" vertex="1">
            <mxGeometry x="2688" y="507" width="100" height="60" as="geometry" />
          </mxCell>
        </UserObject>
        <UserObject label="&lt;div style=&quot;font-size: 1px&quot;&gt;&lt;font style=&quot;font-size:16.93px;font-family:SimSun;color:#000000;direction:ltr;letter-spacing:0px;line-height:120%;opacity:1&quot;&gt;转KML&lt;/font&gt;&lt;font style=&quot;font-size:11.29px;font-family:Themed;color:#000000;direction:ltr;letter-spacing:0px;line-height:120%;opacity:1&quot;&gt;&lt;br/&gt;&lt;/font&gt;&lt;/div&gt;" tags="流程图" id="12">
          <mxCell style="verticalAlign=middle;align=center;overflow=width;vsdxID=123;fillColor=#FFFFFF;gradientColor=none;shape=stencil(1VNBEoMgDHwNRxyEqT7Atv9gKipTCk6kVX9fKGrVKYceeuhtN9kksyQgVnQNbwWipLNgrqKXpW0QOyJKpW4ESOsQYifEisqAqMHcdRl4y73So5t5+A5DqMuTg6+hZAycvNg5SJXUK2lKSFzK4eIyMEkzluRTXxjn6iyhUyzScOED5oPsMBjLrTR6PY4oDrXAbhyuFK83qa4Xol2F07iXve159Fduso2bzy/5Ey8OvPdZSaXCOSz52LL/boMk6nrn2IH9xbtQ+C3s9AQ=);strokeColor=#000000;spacingTop=-1;spacingBottom=-1;spacingLeft=-1;spacingRight=-1;points=[[0,0.5,0],[0.5,0,0],[0.5,1,0],[1.07,0.5,0],[1,0.5,0]];labelBackgroundColor=none;rounded=0;html=1;whiteSpace=wrap;" parent="1" vertex="1">
            <mxGeometry x="2818" y="507" width="100" height="60" as="geometry" />
          </mxCell>
        </UserObject>
        <UserObject label="&lt;div style=&quot;font-size: 1px&quot;&gt;&lt;font style=&quot;font-size:16.93px;font-family:SimSun;color:#000000;direction:ltr;letter-spacing:0px;line-height:120%;opacity:1&quot;&gt;输出形变速率&lt;/font&gt;&lt;font style=&quot;font-size:11.29px;font-family:Themed;color:#000000;direction:ltr;letter-spacing:0px;line-height:120%;opacity:1&quot;&gt;&lt;br/&gt;&lt;/font&gt;&lt;/div&gt;" tags="流程图" id="13">
          <mxCell style="verticalAlign=middle;align=center;overflow=width;vsdxID=125;fillColor=#FFFFFF;gradientColor=none;shape=stencil(1VPBEoIgEP0ajjgI6djZ6j+YRGUicFZK/fsw0tTi2KHb27dvd+exC2J5W/NGIEpaC+YiOlnYGrEDolTqWoC0DiF2RCwvDYgKzE0XPm74qBzR1dzHDr2vS6IsHYsoGTxBntHJa5XUC21MSFjK4ewy8JLu9lHmtTBMxWlEE88F+s1xj3kvWwzGciuNXk4jikMlsJuGS8WrVarthGgWdBy28mF7mh10E3+xk67sBJ7yJ24ceG+0lEr5g5jzoXX/2wpJ0PTGsAPbk3eU/y7s+AA=);strokeColor=#000000;spacingTop=-1;spacingBottom=-1;spacingLeft=-1;spacingRight=-1;points=[[0,0.5,0],[0.5,0,0],[0.5,1,0],[1.07,0.5,0],[1,0.5,0]];labelBackgroundColor=none;rounded=0;html=1;whiteSpace=wrap;" parent="1" vertex="1">
            <mxGeometry x="2950" y="507" width="128" height="60" as="geometry" />
          </mxCell>
        </UserObject>
        <UserObject label="&lt;div style=&quot;font-size: 1px&quot;&gt;&lt;font style=&quot;font-size:16.93px;font-family:SimSun;color:#000000;direction:ltr;letter-spacing:0px;line-height:120%;opacity:1&quot;&gt;&lt;b&gt;地理编码&lt;br/&gt;&lt;/b&gt;&lt;/font&gt;&lt;font style=&quot;font-size:16.93px;font-family:Themed;color:#000000;direction:ltr;letter-spacing:0px;line-height:120%;opacity:1&quot;&gt;（约&lt;/font&gt;&lt;font style=&quot;font-size:16.93px;font-family:Themed;color:#ff0000;direction:ltr;letter-spacing:0px;line-height:120%;opacity:1&quot;&gt;&lt;b&gt;1.25人天&lt;/b&gt;&lt;/font&gt;&lt;font style=&quot;font-size:16.93px;font-family:Themed;color:#000000;direction:ltr;letter-spacing:0px;line-height:120%;opacity:1&quot;&gt;）&lt;/font&gt;&lt;font style=&quot;font-size:11.29px;font-family:Themed;color:#000000;direction:ltr;letter-spacing:0px;line-height:120%;opacity:1&quot;&gt;&lt;br/&gt;&lt;/font&gt;&lt;/div&gt;" tags="流程图" id="14">
          <mxCell style="verticalAlign=middle;align=center;overflow=width;vsdxID=150;fillColor=#FFFFFF;gradientColor=none;shape=stencil(tVLREoIgEPwaHnEQxsl3s/9gEpSJwDko7e+DsEkze2l627vdu5uFRaxyHe8FosR5sCcxqMZ3iO0Rpcp0ApQPCLEasUpaEC3Yi2lS3fOojOhsr3HDmObyMtsVcYqS29Qh5FEfklwrM5OXeUa/yjkcAwfr7TDpiyTfXvjkMR+Vw2A998qaBac5tAKHU1hq3i4oNwjRr9ofvayt/+Rk+yX/4iWA159KpXWKxJx/z0Bopfyw+g4=);strokeColor=#000000;spacingTop=-1;spacingBottom=-1;spacingLeft=-1;spacingRight=-1;points=[[0.5,0,0],[0.5,0.5,0],[1,0.5,0]];labelBackgroundColor=none;rounded=0;html=1;whiteSpace=wrap;" parent="1" vertex="1">
            <mxGeometry x="3109" y="515" width="128" height="48" as="geometry" />
          </mxCell>
        </UserObject>
        <UserObject label="" tags="背景" id="15">
          <mxCell style="vsdxID=164;fillColor=none;gradientColor=none;shape=stencil(nZBLDoAgDERP0z3SIyjew0SURgSD+Lu9kMZoXLhwN9O+tukAlrNpJg1SzDH4QW/URgNYgZTkjA4UkwJUgGXng+6DX1zLfmoymdXo17xh5zmRJ6Q42BWCfc2oJfdAr+Yv+AP9Cb7OJ3H/2JG1HNGz/84klThPVCc=);dashed=1;strokeColor=#000000;points=[];labelBackgroundColor=none;rounded=0;html=1;whiteSpace=wrap;" parent="1" vertex="1">
            <mxGeometry x="2507" y="499" width="750" height="81" as="geometry" />
          </mxCell>
        </UserObject>
        <UserObject label="&lt;div style=&quot;font-size: 1px&quot;&gt;&lt;font style=&quot;font-size:16.93px;font-family:SimSun;color:#000000;direction:ltr;letter-spacing:0px;line-height:120%;opacity:1&quot;&gt;回归分析&lt;/font&gt;&lt;font style=&quot;font-size:11.29px;font-family:Themed;color:#000000;direction:ltr;letter-spacing:0px;line-height:120%;opacity:1&quot;&gt;&lt;br/&gt;&lt;/font&gt;&lt;/div&gt;" tags="流程图" id="16">
          <mxCell style="verticalAlign=middle;align=center;overflow=width;vsdxID=90;fillColor=#FFFFFF;gradientColor=none;shape=stencil(nZBbDoQgDEVX03+k7sDHPkxEaWTAIL52L6QxOn6Yyfzd25626QUsJt2MCqSYgneDWqkNGrAEKclq5SlEBVgBFp3zqvduti37sUlkUh+3pA0bz4k0IcXOLhPsa0YN2Rt6Nv+CX9BvMP+ZfNyP4nqyI2M4o3v/GUoscaBYHQ==);strokeColor=#000000;spacingTop=-1;spacingBottom=-1;spacingLeft=-1;spacingRight=-1;points=[[0,0.5,0],[1,0.5,0],[0.5,1,0],[0.5,0.2,0]];labelBackgroundColor=none;rounded=0;html=1;whiteSpace=wrap;" parent="1" vertex="1">
            <mxGeometry x="2568" y="65" width="100" height="60" as="geometry" />
          </mxCell>
        </UserObject>
        <UserObject label="&lt;div style=&quot;font-size: 1px&quot;&gt;&lt;font style=&quot;font-size:16.93px;font-family:SimSun;color:#000000;direction:ltr;letter-spacing:0px;line-height:120%;opacity:1&quot;&gt;去除高程残差&lt;/font&gt;&lt;font style=&quot;font-size:11.29px;font-family:Themed;color:#000000;direction:ltr;letter-spacing:0px;line-height:120%;opacity:1&quot;&gt;&lt;br/&gt;&lt;/font&gt;&lt;/div&gt;" tags="流程图" id="17">
          <mxCell style="verticalAlign=middle;align=center;overflow=width;vsdxID=92;fillColor=#FFFFFF;gradientColor=none;shape=stencil(nZBbDoQgDEVX03+k7sDHPkxEaWTAIL52L6QxOn6Yyfzd25626QUsJt2MCqSYgneDWqkNGrAEKclq5SlEBVgBFp3zqvduti37sUlkUh+3pA0bz4k0IcXOLhPsa0YN2Rt6Nv+CX9BvMP+ZfNyP4nqyI2M4o3v/GUoscaBYHQ==);strokeColor=#000000;spacingTop=-1;spacingBottom=-1;spacingLeft=-1;spacingRight=-1;points=[[0,0.5,0],[1,0.5,0],[0.5,1,0],[0.5,0.2,0]];labelBackgroundColor=none;rounded=0;html=1;whiteSpace=wrap;" parent="1" vertex="1">
            <mxGeometry x="2741" y="65" width="114" height="60" as="geometry" />
          </mxCell>
        </UserObject>
        <UserObject label="&lt;div style=&quot;font-size: 1px&quot;&gt;&lt;font style=&quot;font-size:16.93px;font-family:SimSun;color:#000000;direction:ltr;letter-spacing:0px;line-height:120%;opacity:1&quot;&gt;去除大气残差&lt;/font&gt;&lt;font style=&quot;font-size:11.29px;font-family:Themed;color:#000000;direction:ltr;letter-spacing:0px;line-height:120%;opacity:1&quot;&gt;&lt;br/&gt;&lt;/font&gt;&lt;/div&gt;" tags="流程图" id="18">
          <mxCell style="verticalAlign=middle;align=center;overflow=width;vsdxID=95;fillColor=#FFFFFF;gradientColor=none;shape=stencil(nZBbDoQgDEVX03+k7sDHPkxEaWTAIL52L6QxOn6Yyfzd25626QUsJt2MCqSYgneDWqkNGrAEKclq5SlEBVgBFp3zqvduti37sUlkUh+3pA0bz4k0IcXOLhPsa0YN2Rt6Nv+CX9BvMP+ZfNyP4nqyI2M4o3v/GUoscaBYHQ==);strokeColor=#000000;spacingTop=-1;spacingBottom=-1;spacingLeft=-1;spacingRight=-1;points=[[0,0.5,0],[1,0.5,0],[0.5,1,0],[0.5,0.2,0]];labelBackgroundColor=none;rounded=0;html=1;whiteSpace=wrap;" parent="1" vertex="1">
            <mxGeometry x="2923" y="65" width="114" height="60" as="geometry" />
          </mxCell>
        </UserObject>
        <UserObject label="&lt;div style=&quot;font-size: 1px&quot;&gt;&lt;font style=&quot;font-size:16.93px;font-family:SimSun;color:#000000;direction:ltr;letter-spacing:0px;line-height:120%;opacity:1&quot;&gt;&lt;b&gt;第一次回归分析&lt;/b&gt;&lt;/font&gt;&lt;font style=&quot;font-size:16.93px;font-family:Themed;color:#000000;direction:ltr;letter-spacing:0px;line-height:120%;opacity:1&quot;&gt;（约&lt;/font&gt;&lt;font style=&quot;font-size:16.93px;font-family:Themed;color:#ff0000;direction:ltr;letter-spacing:0px;line-height:120%;opacity:1&quot;&gt;&lt;b&gt;6人天&lt;/b&gt;&lt;/font&gt;&lt;font style=&quot;font-size:16.93px;font-family:Themed;color:#000000;direction:ltr;letter-spacing:0px;line-height:120%;opacity:1&quot;&gt;）&lt;/font&gt;&lt;font style=&quot;font-size:11.29px;font-family:Themed;color:#000000;direction:ltr;letter-spacing:0px;line-height:120%;opacity:1&quot;&gt;&lt;br/&gt;&lt;/font&gt;&lt;/div&gt;" tags="流程图" id="19">
          <mxCell style="verticalAlign=middle;align=center;overflow=width;vsdxID=139;fillColor=#FFFFFF;gradientColor=none;shape=stencil(tVLREoIgEPwaHnEQxsl3s/9gEpSJwDko7e+DsEkze2l627vdu5uFRaxyHe8FosR5sCcxqMZ3iO0Rpcp0ApQPCLEasUpaEC3Yi2lS3fOojOhsr3HDmObyMtsVcYqS29Qh5FEfklwrM5OXeUa/yjkcAwfr7TDpiyTfXvjkMR+Vw2A998qaBac5tAKHU1hq3i4oNwjRr9ofvayt/+Rk+yX/4iWA159KpXWKxJx/z0Bopfyw+g4=);strokeColor=#000000;spacingTop=-1;spacingBottom=-1;spacingLeft=-1;spacingRight=-1;points=[[0.5,0,0],[0.5,0.5,0],[1,0.5,0]];labelBackgroundColor=none;rounded=0;html=1;whiteSpace=wrap;" parent="1" vertex="1">
            <mxGeometry x="3109" y="77" width="128" height="48" as="geometry" />
          </mxCell>
        </UserObject>
        <UserObject label="" tags="背景" id="20">
          <mxCell style="vsdxID=153;fillColor=none;gradientColor=none;shape=stencil(nZBLDoAgDERP0z3SIyjew0SURgSD+Lu9kMZoXLhwN9O+tukAlrNpJg1SzDH4QW/URgNYgZTkjA4UkwJUgGXng+6DX1zLfmoymdXo17xh5zmRJ6Q42BWCfc2oJfdAr+Yv+AP9Cb7OJ3H/2JG1HNGz/84klThPVCc=);dashed=1;strokeColor=#000000;points=[];labelBackgroundColor=none;rounded=0;html=1;whiteSpace=wrap;" parent="1" vertex="1">
            <mxGeometry x="2507" y="60" width="750" height="81" as="geometry" />
          </mxCell>
        </UserObject>
        <UserObject label="&lt;div style=&quot;font-size: 1px&quot;&gt;&lt;font style=&quot;font-size:16.93px;font-family:SimSun;color:#000000;direction:ltr;letter-spacing:0px;line-height:120%;opacity:1&quot;&gt;回归分析&lt;/font&gt;&lt;font style=&quot;font-size:11.29px;font-family:Themed;color:#000000;direction:ltr;letter-spacing:0px;line-height:120%;opacity:1&quot;&gt;&lt;br/&gt;&lt;/font&gt;&lt;/div&gt;" tags="流程图" id="21">
          <mxCell style="verticalAlign=middle;align=center;overflow=width;vsdxID=97;fillColor=#FFFFFF;gradientColor=none;shape=stencil(nZBbDoQgDEVX03+k7sDHPkxEaWTAIL52L6QxOn6Yyfzd25626QUsJt2MCqSYgneDWqkNGrAEKclq5SlEBVgBFp3zqvduti37sUlkUh+3pA0bz4k0IcXOLhPsa0YN2Rt6Nv+CX9BvMP+ZfNyP4nqyI2M4o3v/GUoscaBYHQ==);strokeColor=#000000;spacingTop=-1;spacingBottom=-1;spacingLeft=-1;spacingRight=-1;points=[[0,0.5,0],[1,0.5,0],[0.5,1,0],[0.5,0.2,0]];labelBackgroundColor=none;rounded=0;html=1;whiteSpace=wrap;" parent="1" vertex="1">
            <mxGeometry x="2523" y="179" width="94" height="60" as="geometry" />
          </mxCell>
        </UserObject>
        <UserObject label="&lt;div style=&quot;font-size: 1px&quot;&gt;&lt;font style=&quot;font-size:16.93px;font-family:SimSun;color:#000000;direction:ltr;letter-spacing:0px;line-height:120%;opacity:1&quot;&gt;空间滤波&lt;/font&gt;&lt;font style=&quot;font-size:11.29px;font-family:Themed;color:#000000;direction:ltr;letter-spacing:0px;line-height:120%;opacity:1&quot;&gt;&lt;br/&gt;&lt;/font&gt;&lt;/div&gt;" tags="流程图" id="22">
          <mxCell style="verticalAlign=middle;align=center;overflow=width;vsdxID=98;fillColor=#FFFFFF;gradientColor=none;shape=stencil(nZBbDoQgDEVX03+k7sDHPkxEaWTAIL52L6QxOn6Yyfzd25626QUsJt2MCqSYgneDWqkNGrAEKclq5SlEBVgBFp3zqvduti37sUlkUh+3pA0bz4k0IcXOLhPsa0YN2Rt6Nv+CX9BvMP+ZfNyP4nqyI2M4o3v/GUoscaBYHQ==);strokeColor=#000000;spacingTop=-1;spacingBottom=-1;spacingLeft=-1;spacingRight=-1;points=[[0,0.5,0],[1,0.5,0],[0.5,1,0],[0.5,0.2,0]];labelBackgroundColor=none;rounded=0;html=1;whiteSpace=wrap;" parent="1" vertex="1">
            <mxGeometry x="2637" y="179" width="94" height="60" as="geometry" />
          </mxCell>
        </UserObject>
        <UserObject label="&lt;div style=&quot;font-size: 1px&quot;&gt;&lt;font style=&quot;font-size:16.93px;font-family:SimSun;color:#000000;direction:ltr;letter-spacing:0px;line-height:120%;opacity:1&quot;&gt;制作掩膜&lt;/font&gt;&lt;font style=&quot;font-size:11.29px;font-family:Themed;color:#000000;direction:ltr;letter-spacing:0px;line-height:120%;opacity:1&quot;&gt;&lt;br/&gt;&lt;/font&gt;&lt;/div&gt;" tags="流程图" id="23">
          <mxCell style="verticalAlign=middle;align=center;overflow=width;vsdxID=100;fillColor=#FFFFFF;gradientColor=none;shape=stencil(nZBbDoQgDEVX03+k7sDHPkxEaWTAIL52L6QxOn6Yyfzd25626QUsJt2MCqSYgneDWqkNGrAEKclq5SlEBVgBFp3zqvduti37sUlkUh+3pA0bz4k0IcXOLhPsa0YN2Rt6Nv+CX9BvMP+ZfNyP4nqyI2M4o3v/GUoscaBYHQ==);strokeColor=#000000;spacingTop=-1;spacingBottom=-1;spacingLeft=-1;spacingRight=-1;points=[[0,0.5,0],[1,0.5,0],[0.5,1,0],[0.5,0.2,0]];labelBackgroundColor=none;rounded=0;html=1;whiteSpace=wrap;" parent="1" vertex="1">
            <mxGeometry x="2751" y="179" width="94" height="60" as="geometry" />
          </mxCell>
        </UserObject>
        <UserObject label="&lt;div style=&quot;font-size: 1px&quot;&gt;&lt;font style=&quot;font-size:16.93px;font-family:SimSun;color:#000000;direction:ltr;letter-spacing:0px;line-height:120%;opacity:1&quot;&gt;扩展大气&lt;/font&gt;&lt;font style=&quot;font-size:11.29px;font-family:Themed;color:#000000;direction:ltr;letter-spacing:0px;line-height:120%;opacity:1&quot;&gt;&lt;br/&gt;&lt;/font&gt;&lt;/div&gt;" tags="流程图" id="24">
          <mxCell style="verticalAlign=middle;align=center;overflow=width;vsdxID=102;fillColor=#FFFFFF;gradientColor=none;shape=stencil(nZBbDoQgDEVX03+k7sDHPkxEaWTAIL52L6QxOn6Yyfzd25626QUsJt2MCqSYgneDWqkNGrAEKclq5SlEBVgBFp3zqvduti37sUlkUh+3pA0bz4k0IcXOLhPsa0YN2Rt6Nv+CX9BvMP+ZfNyP4nqyI2M4o3v/GUoscaBYHQ==);strokeColor=#000000;spacingTop=-1;spacingBottom=-1;spacingLeft=-1;spacingRight=-1;points=[[0,0.5,0],[1,0.5,0],[0.5,1,0],[0.5,0.2,0]];labelBackgroundColor=none;rounded=0;html=1;whiteSpace=wrap;" parent="1" vertex="1">
            <mxGeometry x="2865" y="179" width="94" height="60" as="geometry" />
          </mxCell>
        </UserObject>
        <UserObject label="&lt;div style=&quot;font-size: 1px&quot;&gt;&lt;font style=&quot;font-size:16.93px;font-family:SimSun;color:#000000;direction:ltr;letter-spacing:0px;line-height:120%;opacity:1&quot;&gt;去除大气&lt;/font&gt;&lt;font style=&quot;font-size:11.29px;font-family:Themed;color:#000000;direction:ltr;letter-spacing:0px;line-height:120%;opacity:1&quot;&gt;&lt;br/&gt;&lt;/font&gt;&lt;/div&gt;" tags="流程图" id="25">
          <mxCell style="verticalAlign=middle;align=center;overflow=width;vsdxID=104;fillColor=#FFFFFF;gradientColor=none;shape=stencil(nZBbDoQgDEVX03+k7sDHPkxEaWTAIL52L6QxOn6Yyfzd25626QUsJt2MCqSYgneDWqkNGrAEKclq5SlEBVgBFp3zqvduti37sUlkUh+3pA0bz4k0IcXOLhPsa0YN2Rt6Nv+CX9BvMP+ZfNyP4nqyI2M4o3v/GUoscaBYHQ==);strokeColor=#000000;spacingTop=-1;spacingBottom=-1;spacingLeft=-1;spacingRight=-1;points=[[0,0.5,0],[1,0.5,0],[0.5,1,0],[0.5,0.2,0]];labelBackgroundColor=none;rounded=0;html=1;whiteSpace=wrap;" parent="1" vertex="1">
            <mxGeometry x="2979" y="179" width="94" height="60" as="geometry" />
          </mxCell>
        </UserObject>
        <UserObject label="&lt;div style=&quot;font-size: 1px&quot;&gt;&lt;font style=&quot;font-size:16.93px;font-family:SimSun;color:#000000;direction:ltr;letter-spacing:0px;line-height:120%;opacity:1&quot;&gt;&lt;b&gt;第二次回归分析&lt;/b&gt;&lt;/font&gt;&lt;font style=&quot;font-size:16.93px;font-family:Themed;color:#000000;direction:ltr;letter-spacing:0px;line-height:120%;opacity:1&quot;&gt;（约&lt;/font&gt;&lt;font style=&quot;font-size:16.93px;font-family:Themed;color:#ff0000;direction:ltr;letter-spacing:0px;line-height:120%;opacity:1&quot;&gt;&lt;b&gt;9人天&lt;/b&gt;&lt;/font&gt;&lt;font style=&quot;font-size:16.93px;font-family:Themed;color:#000000;direction:ltr;letter-spacing:0px;line-height:120%;opacity:1&quot;&gt;）&lt;/font&gt;&lt;font style=&quot;font-size:11.29px;font-family:Themed;color:#000000;direction:ltr;letter-spacing:0px;line-height:120%;opacity:1&quot;&gt;&lt;br/&gt;&lt;/font&gt;&lt;/div&gt;" tags="流程图" id="26">
          <mxCell style="verticalAlign=middle;align=center;overflow=width;vsdxID=143;fillColor=#FFFFFF;gradientColor=none;shape=stencil(tVLREoIgEPwaHnEQxsl3s/9gEpSJwDko7e+DsEkze2l627vdu5uFRaxyHe8FosR5sCcxqMZ3iO0Rpcp0ApQPCLEasUpaEC3Yi2lS3fOojOhsr3HDmObyMtsVcYqS29Qh5FEfklwrM5OXeUa/yjkcAwfr7TDpiyTfXvjkMR+Vw2A998qaBac5tAKHU1hq3i4oNwjRr9ofvayt/+Rk+yX/4iWA159KpXWKxJx/z0Bopfyw+g4=);strokeColor=#000000;spacingTop=-1;spacingBottom=-1;spacingLeft=-1;spacingRight=-1;points=[[0.5,0,0],[0.5,0.5,0],[1,0.5,0]];labelBackgroundColor=none;rounded=0;html=1;whiteSpace=wrap;" parent="1" vertex="1">
            <mxGeometry x="3109" y="189" width="128" height="48" as="geometry" />
          </mxCell>
        </UserObject>
        <UserObject label="" tags="背景" id="27">
          <mxCell style="vsdxID=161;fillColor=none;gradientColor=none;shape=stencil(nZBLDoAgDERP0z3SIyjew0SURgSD+Lu9kMZoXLhwN9O+tukAlrNpJg1SzDH4QW/URgNYgZTkjA4UkwJUgGXng+6DX1zLfmoymdXo17xh5zmRJ6Q42BWCfc2oJfdAr+Yv+AP9Cb7OJ3H/2JG1HNGz/84klThPVCc=);dashed=1;strokeColor=#000000;points=[];labelBackgroundColor=none;rounded=0;html=1;whiteSpace=wrap;" parent="1" vertex="1">
            <mxGeometry x="2507" y="169" width="750" height="81" as="geometry" />
          </mxCell>
        </UserObject>
        <UserObject label="&lt;div style=&quot;font-size: 1px&quot;&gt;&lt;font style=&quot;font-size:16.93px;font-family:SimSun;color:#000000;direction:ltr;letter-spacing:0px;line-height:120%;opacity:1&quot;&gt;空间滤波&lt;/font&gt;&lt;font style=&quot;font-size:11.29px;font-family:Themed;color:#000000;direction:ltr;letter-spacing:0px;line-height:120%;opacity:1&quot;&gt;&lt;br/&gt;&lt;/font&gt;&lt;/div&gt;" tags="流程图" id="28">
          <mxCell style="verticalAlign=middle;align=center;overflow=width;vsdxID=106;fillColor=#FFFFFF;gradientColor=none;shape=stencil(nZBLDoMwDERP432wuQHQeyARiNU0QSHlc3sSWaiURYW6m/E8W9YAVZNpRw2ophj8Uy/cRQNUAyI7owPHpIAaoKr3QQ/Bv10nfmwzmdXLz/nCKnsqb6DaxBVK/ENQy+6EHuFf8A8Uy7vk98nyNnn5NIlPHT1bK22e82t9aSTVU7MD);strokeColor=#000000;spacingTop=-1;spacingBottom=-1;spacingLeft=-1;spacingRight=-1;points=[[0,0.5,0],[1,0.5,0],[0.5,1,0],[0.5,0,0]];labelBackgroundColor=none;rounded=0;html=1;whiteSpace=wrap;" parent="1" vertex="1">
            <mxGeometry x="2556" y="292" width="100" height="60" as="geometry" />
          </mxCell>
        </UserObject>
        <UserObject label="&lt;div style=&quot;font-size: 1px&quot;&gt;&lt;font style=&quot;font-size:16.93px;font-family:SimSun;color:#000000;direction:ltr;letter-spacing:0px;line-height:120%;opacity:1&quot;&gt;制作低速率掩膜&lt;/font&gt;&lt;font style=&quot;font-size:11.29px;font-family:Themed;color:#000000;direction:ltr;letter-spacing:0px;line-height:120%;opacity:1&quot;&gt;&lt;br/&gt;&lt;/font&gt;&lt;/div&gt;" tags="流程图" id="29">
          <mxCell style="verticalAlign=middle;align=center;overflow=width;vsdxID=108;fillColor=#FFFFFF;gradientColor=none;shape=stencil(nZBLDoMwDERP432wuQHQeyARiNU0QSHlc3sSWaiURYW6m/E8W9YAVZNpRw2ophj8Uy/cRQNUAyI7owPHpIAaoKr3QQ/Bv10nfmwzmdXLz/nCKnsqb6DaxBVK/ENQy+6EHuFf8A8Uy7vk98nyNnn5NIlPHT1bK22e82t9aSTVU7MD);strokeColor=#000000;spacingTop=-1;spacingBottom=-1;spacingLeft=-1;spacingRight=-1;points=[[0,0.5,0],[1,0.5,0],[0.5,1,0],[0.5,0,0]];labelBackgroundColor=none;rounded=0;html=1;whiteSpace=wrap;" parent="1" vertex="1">
            <mxGeometry x="2680" y="292" width="100" height="60" as="geometry" />
          </mxCell>
        </UserObject>
        <UserObject label="&lt;div style=&quot;font-size: 1px&quot;&gt;&lt;font style=&quot;font-size:16.93px;font-family:SimSun;color:#000000;direction:ltr;letter-spacing:0px;line-height:120%;opacity:1&quot;&gt;再次扩展大气&lt;/font&gt;&lt;font style=&quot;font-size:11.29px;font-family:Themed;color:#000000;direction:ltr;letter-spacing:0px;line-height:120%;opacity:1&quot;&gt;&lt;br/&gt;&lt;/font&gt;&lt;/div&gt;" tags="流程图" id="30">
          <mxCell style="verticalAlign=middle;align=center;overflow=width;vsdxID=110;fillColor=#FFFFFF;gradientColor=none;shape=stencil(nZBLDoMwDERP432wuQHQeyARiNU0QSHlc3sSWaiURYW6m/E8W9YAVZNpRw2ophj8Uy/cRQNUAyI7owPHpIAaoKr3QQ/Bv10nfmwzmdXLz/nCKnsqb6DaxBVK/ENQy+6EHuFf8A8Uy7vk98nyNnn5NIlPHT1bK22e82t9aSTVU7MD);strokeColor=#000000;spacingTop=-1;spacingBottom=-1;spacingLeft=-1;spacingRight=-1;points=[[0,0.5,0],[1,0.5,0],[0.5,1,0],[0.5,0,0]];labelBackgroundColor=none;rounded=0;html=1;whiteSpace=wrap;" parent="1" vertex="1">
            <mxGeometry x="2805" y="292" width="100" height="60" as="geometry" />
          </mxCell>
        </UserObject>
        <UserObject label="&lt;div style=&quot;font-size: 1px&quot;&gt;&lt;font style=&quot;font-size:16.93px;font-family:SimSun;color:#000000;direction:ltr;letter-spacing:0px;line-height:120%;opacity:1&quot;&gt;计算时序基线&lt;/font&gt;&lt;font style=&quot;font-size:11.29px;font-family:Themed;color:#000000;direction:ltr;letter-spacing:0px;line-height:120%;opacity:1&quot;&gt;&lt;br/&gt;&lt;/font&gt;&lt;/div&gt;" tags="流程图" id="31">
          <mxCell style="verticalAlign=middle;align=center;overflow=width;vsdxID=112;fillColor=#FFFFFF;gradientColor=none;shape=stencil(nZBLDoMwDERP432wuQHQeyARiNU0QSHlc3sSWaiURYW6m/E8W9YAVZNpRw2ophj8Uy/cRQNUAyI7owPHpIAaoKr3QQ/Bv10nfmwzmdXLz/nCKnsqb6DaxBVK/ENQy+6EHuFf8A8Uy7vk98nyNnn5NIlPHT1bK22e82t9aSTVU7MD);strokeColor=#000000;spacingTop=-1;spacingBottom=-1;spacingLeft=-1;spacingRight=-1;points=[[0,0.5,0],[1,0.5,0],[0.5,1,0],[0.5,0,0]];labelBackgroundColor=none;rounded=0;html=1;whiteSpace=wrap;" parent="1" vertex="1">
            <mxGeometry x="2929" y="292" width="100" height="60" as="geometry" />
          </mxCell>
        </UserObject>
        <UserObject label="&lt;div style=&quot;font-size: 1px&quot;&gt;&lt;font style=&quot;font-size:16.93px;font-family:SimSun;color:#000000;direction:ltr;letter-spacing:0px;line-height:120%;opacity:1&quot;&gt;&lt;b&gt;统一到主影像&lt;/b&gt;&lt;/font&gt;&lt;font style=&quot;font-size:16.93px;font-family:Themed;color:#000000;direction:ltr;letter-spacing:0px;line-height:120%;opacity:1&quot;&gt;（约&lt;/font&gt;&lt;font style=&quot;font-size:16.93px;font-family:Themed;color:#ff0000;direction:ltr;letter-spacing:0px;line-height:120%;opacity:1&quot;&gt;&lt;b&gt;9人天&lt;/b&gt;&lt;/font&gt;&lt;font style=&quot;font-size:16.93px;font-family:Themed;color:#000000;direction:ltr;letter-spacing:0px;line-height:120%;opacity:1&quot;&gt;）&lt;/font&gt;&lt;font style=&quot;font-size:11.29px;font-family:Themed;color:#000000;direction:ltr;letter-spacing:0px;line-height:120%;opacity:1&quot;&gt;&lt;br/&gt;&lt;/font&gt;&lt;/div&gt;" tags="流程图" id="32">
          <mxCell style="verticalAlign=middle;align=center;overflow=width;vsdxID=146;fillColor=#FFFFFF;gradientColor=none;shape=stencil(tVLREoIgEPwaHnEQxsl3s/9gEpSJwDko7e+DsEkze2l627vdu5uFRaxyHe8FosR5sCcxqMZ3iO0Rpcp0ApQPCLEasUpaEC3Yi2lS3fOojOhsr3HDmObyMtsVcYqS29Qh5FEfklwrM5OXeUa/yjkcAwfr7TDpiyTfXvjkMR+Vw2A998qaBac5tAKHU1hq3i4oNwjRr9ofvayt/+Rk+yX/4iWA159KpXWKxJx/z0Bopfyw+g4=);strokeColor=#000000;spacingTop=-1;spacingBottom=-1;spacingLeft=-1;spacingRight=-1;points=[[0.5,0,0],[0.5,0.5,0],[1,0.5,0]];labelBackgroundColor=none;rounded=0;html=1;whiteSpace=wrap;" parent="1" vertex="1">
            <mxGeometry x="3109" y="299" width="128" height="48" as="geometry" />
          </mxCell>
        </UserObject>
        <UserObject label="" tags="背景" id="33">
          <mxCell style="vsdxID=162;fillColor=none;gradientColor=none;shape=stencil(nZBLDoAgDERP0z3SIyjew0SURgSD+Lu9kMZoXLhwN9O+tukAlrNpJg1SzDH4QW/URgNYgZTkjA4UkwJUgGXng+6DX1zLfmoymdXo17xh5zmRJ6Q42BWCfc2oJfdAr+Yv+AP9Cb7OJ3H/2JG1HNGz/84klThPVCc=);dashed=1;strokeColor=#000000;points=[];labelBackgroundColor=none;rounded=0;html=1;whiteSpace=wrap;" parent="1" vertex="1">
            <mxGeometry x="2507" y="279" width="750" height="81" as="geometry" />
          </mxCell>
        </UserObject>
        <UserObject label="&lt;div style=&quot;font-size: 1px&quot;&gt;&lt;font style=&quot;font-size:16.93px;font-family:SimSun;color:#000000;direction:ltr;letter-spacing:0px;line-height:120%;opacity:1&quot;&gt;回归分析&lt;/font&gt;&lt;font style=&quot;font-size:11.29px;font-family:Themed;color:#000000;direction:ltr;letter-spacing:0px;line-height:120%;opacity:1&quot;&gt;&lt;br/&gt;&lt;/font&gt;&lt;/div&gt;" tags="流程图" id="34">
          <mxCell style="verticalAlign=middle;align=center;overflow=width;vsdxID=114;fillColor=#FFFFFF;gradientColor=none;shape=stencil(nZBbDoQgDEVX03+k7sDHPkxEaWTAIL52L6QxOn6Yyfzd25626QUsJt2MCqSYgneDWqkNGrAEKclq5SlEBVgBFp3zqvduti37sUlkUh+3pA0bz4k0IcXOLhPsa0YN2Rt6Nv+CX9BvMP+ZfNyP4nqyI2M4o3v/GUoscaBYHQ==);strokeColor=#000000;spacingTop=-1;spacingBottom=-1;spacingLeft=-1;spacingRight=-1;points=[[0,0.5,0],[1,0.5,0],[0.5,1,0],[0.5,0.2,0]];labelBackgroundColor=none;rounded=0;html=1;whiteSpace=wrap;" parent="1" vertex="1">
            <mxGeometry x="2586" y="399" width="100" height="60" as="geometry" />
          </mxCell>
        </UserObject>
        <UserObject label="&lt;div style=&quot;font-size: 1px&quot;&gt;&lt;font style=&quot;font-size:16.93px;font-family:SimSun;color:#000000;direction:ltr;letter-spacing:0px;line-height:120%;opacity:1&quot;&gt;剔除不可靠点&lt;/font&gt;&lt;font style=&quot;font-size:11.29px;font-family:Themed;color:#000000;direction:ltr;letter-spacing:0px;line-height:120%;opacity:1&quot;&gt;&lt;br/&gt;&lt;/font&gt;&lt;/div&gt;" tags="流程图" id="35">
          <mxCell style="verticalAlign=middle;align=center;overflow=width;vsdxID=115;fillColor=#FFFFFF;gradientColor=none;shape=stencil(nZBbDoQgDEVX03+k7sDHPkxEaWTAIL52L6QxOn6Yyfzd25626QUsJt2MCqSYgneDWqkNGrAEKclq5SlEBVgBFp3zqvduti37sUlkUh+3pA0bz4k0IcXOLhPsa0YN2Rt6Nv+CX9BvMP+ZfNyP4nqyI2M4o3v/GUoscaBYHQ==);strokeColor=#000000;spacingTop=-1;spacingBottom=-1;spacingLeft=-1;spacingRight=-1;points=[[0,0.5,0],[1,0.5,0],[0.5,1,0],[0.5,0.2,0]];labelBackgroundColor=none;rounded=0;html=1;whiteSpace=wrap;" parent="1" vertex="1">
            <mxGeometry x="2758" y="399" width="114" height="60" as="geometry" />
          </mxCell>
        </UserObject>
        <UserObject label="&lt;div style=&quot;font-size: 1px&quot;&gt;&lt;font style=&quot;font-size:16.93px;font-family:SimSun;color:#000000;direction:ltr;letter-spacing:0px;line-height:120%;opacity:1&quot;&gt;空间滤波&lt;/font&gt;&lt;font style=&quot;font-size:11.29px;font-family:Themed;color:#000000;direction:ltr;letter-spacing:0px;line-height:120%;opacity:1&quot;&gt;&lt;br/&gt;&lt;/font&gt;&lt;/div&gt;" tags="流程图" id="36">
          <mxCell style="verticalAlign=middle;align=center;overflow=width;vsdxID=117;fillColor=#FFFFFF;gradientColor=none;shape=stencil(nZBbDoQgDEVX03+k7sDHPkxEaWTAIL52L6QxOn6Yyfzd25626QUsJt2MCqSYgneDWqkNGrAEKclq5SlEBVgBFp3zqvduti37sUlkUh+3pA0bz4k0IcXOLhPsa0YN2Rt6Nv+CX9BvMP+ZfNyP4nqyI2M4o3v/GUoscaBYHQ==);strokeColor=#000000;spacingTop=-1;spacingBottom=-1;spacingLeft=-1;spacingRight=-1;points=[[0,0.5,0],[1,0.5,0],[0.5,1,0],[0.5,0.2,0]];labelBackgroundColor=none;rounded=0;html=1;whiteSpace=wrap;" parent="1" vertex="1">
            <mxGeometry x="2938" y="399" width="100" height="60" as="geometry" />
          </mxCell>
        </UserObject>
        <UserObject label="&lt;div style=&quot;font-size: 1px&quot;&gt;&lt;font style=&quot;font-size:16.93px;font-family:SimSun;color:#000000;direction:ltr;letter-spacing:0px;line-height:120%;opacity:1&quot;&gt;&lt;b&gt;第三次回归分析&lt;/b&gt;&lt;/font&gt;&lt;font style=&quot;font-size:16.93px;font-family:Themed;color:#000000;direction:ltr;letter-spacing:0px;line-height:120%;opacity:1&quot;&gt;（约&lt;/font&gt;&lt;font style=&quot;font-size:16.93px;font-family:Themed;color:#ff0000;direction:ltr;letter-spacing:0px;line-height:120%;opacity:1&quot;&gt;&lt;b&gt;6人天&lt;/b&gt;&lt;/font&gt;&lt;font style=&quot;font-size:16.93px;font-family:Themed;color:#000000;direction:ltr;letter-spacing:0px;line-height:120%;opacity:1&quot;&gt;）&lt;/font&gt;&lt;font style=&quot;font-size:11.29px;font-family:Themed;color:#000000;direction:ltr;letter-spacing:0px;line-height:120%;opacity:1&quot;&gt;&lt;br/&gt;&lt;/font&gt;&lt;/div&gt;" tags="流程图" id="37">
          <mxCell style="verticalAlign=middle;align=center;overflow=width;vsdxID=148;fillColor=#FFFFFF;gradientColor=none;shape=stencil(tVLREoIgEPwaHnEQxsl3s/9gEpSJwDko7e+DsEkze2l627vdu5uFRaxyHe8FosR5sCcxqMZ3iO0Rpcp0ApQPCLEasUpaEC3Yi2lS3fOojOhsr3HDmObyMtsVcYqS29Qh5FEfklwrM5OXeUa/yjkcAwfr7TDpiyTfXvjkMR+Vw2A998qaBac5tAKHU1hq3i4oNwjRr9ofvayt/+Rk+yX/4iWA159KpXWKxJx/z0Bopfyw+g4=);strokeColor=#000000;spacingTop=-1;spacingBottom=-1;spacingLeft=-1;spacingRight=-1;points=[[0.5,0,0],[0.5,0.5,0],[1,0.5,0]];labelBackgroundColor=none;rounded=0;html=1;whiteSpace=wrap;" parent="1" vertex="1">
            <mxGeometry x="3109" y="411" width="128" height="48" as="geometry" />
          </mxCell>
        </UserObject>
        <UserObject label="" tags="背景" id="38">
          <mxCell style="vsdxID=163;fillColor=none;gradientColor=none;shape=stencil(nZBLDoAgDERP0z3SIyjew0SURgSD+Lu9kMZoXLhwN9O+tukAlrNpJg1SzDH4QW/URgNYgZTkjA4UkwJUgGXng+6DX1zLfmoymdXo17xh5zmRJ6Q42BWCfc2oJfdAr+Yv+AP9Cb7OJ3H/2JG1HNGz/84klThPVCc=);dashed=1;strokeColor=#000000;points=[];labelBackgroundColor=none;rounded=0;html=1;whiteSpace=wrap;" parent="1" vertex="1">
            <mxGeometry x="2507" y="389" width="750" height="81" as="geometry" />
          </mxCell>
        </UserObject>
        <UserObject label="" tags="流程图" id="39">
          <mxCell style="vsdxID=55;fillColor=#FFFFFF;gradientColor=none;shape=stencil(UzV2Ls5ILEhVNTIoLinKz04tz0wpyVA1dlE1MsrMy0gtyiwBslSNXVWNndPyi1LTi/JL81Ig/IJEkEoQKze/DGRCBUSfrhlIi5FBJYRraGAA5rtB1OZk5iGptTQhXq2hAarBeJQSrRC/W4EMhCfTMnNyIGGELI8eKEAhSIAauwIA);strokeColor=#000000;spacingTop=-1;spacingBottom=-1;spacingLeft=-1;spacingRight=-1;points=[[1,0.5,0],[0.5,0.5,0],[0.5,0,0]];labelBackgroundColor=none;rounded=0;html=1;whiteSpace=wrap;" parent="1" vertex="1">
            <mxGeometry x="1630" y="147" width="158" height="38" as="geometry" />
          </mxCell>
        </UserObject>
        <mxCell id="40" value="&lt;div style=&quot;font-size: 1px&quot;&gt;&lt;font style=&quot;font-size:16.93px;font-family:SimSun;color:#000000;direction:ltr;letter-spacing:0px;line-height:120%;opacity:1&quot;&gt;SLC数据提取&lt;/font&gt;&lt;font style=&quot;font-size:11.29px;font-family:Themed;color:#000000;direction:ltr;letter-spacing:0px;line-height:120%;opacity:1&quot;&gt;&lt;br/&gt;&lt;/font&gt;&lt;/div&gt;" style="text;vsdxID=55;fillColor=none;gradientColor=none;strokeColor=none;spacingTop=-1;spacingBottom=-1;spacingLeft=-1;spacingRight=-1;points=[[1,0.5,0],[0.5,0.5,0],[0.5,0,0]];labelBackgroundColor=none;rounded=0;html=1;whiteSpace=wrap;verticalAlign=middle;align=center;overflow=width;;html=1;" parent="39" vertex="1">
          <mxGeometry x="26.4" width="105.6" height="38" as="geometry" />
        </mxCell>
        <UserObject label="" tags="流程图" id="41">
          <mxCell style="vsdxID=59;fillColor=#FFFFFF;gradientColor=none;shape=stencil(UzV2Ls5ILEhVNTIoLinKz04tz0wpyVA1dlE1MsrMy0gtyiwBslSNXVWNndPyi1LTi/JL81Ig/IJEkEoQKze/DGRCBUSfroWeMUiTkUElRMDQwADMd4OozsnMQ1JtaahnTrxqQwN0w/EoJkEpITcDGQjvpmXm5EBCC1kePXiAQpCgNXYFAA==);strokeColor=#000000;spacingTop=-1;spacingBottom=-1;spacingLeft=-1;spacingRight=-1;points=[[1,0.5,0],[0.5,0.5,0],[0.5,0,0]];labelBackgroundColor=none;rounded=0;html=1;whiteSpace=wrap;" parent="1" vertex="1">
            <mxGeometry x="1814" y="147" width="114" height="38" as="geometry" />
          </mxCell>
        </UserObject>
        <mxCell id="42" value="&lt;div style=&quot;font-size: 1px&quot;&gt;&lt;font style=&quot;font-size:16.93px;font-family:SimSun;color:#000000;direction:ltr;letter-spacing:0px;line-height:120%;opacity:1&quot;&gt;影像配准&lt;/font&gt;&lt;font style=&quot;font-size:11.29px;font-family:Themed;color:#000000;direction:ltr;letter-spacing:0px;line-height:120%;opacity:1&quot;&gt;&lt;br/&gt;&lt;/font&gt;&lt;/div&gt;" style="text;vsdxID=59;fillColor=none;gradientColor=none;strokeColor=none;spacingTop=-1;spacingBottom=-1;spacingLeft=-1;spacingRight=-1;points=[[1,0.5,0],[0.5,0.5,0],[0.5,0,0]];labelBackgroundColor=none;rounded=0;html=1;whiteSpace=wrap;verticalAlign=middle;align=center;overflow=width;;html=1;" parent="41" vertex="1">
          <mxGeometry x="19.08" width="76.33" height="38" as="geometry" />
        </mxCell>
        <UserObject label="" tags="流程图" id="43">
          <mxCell style="vsdxID=61;fillColor=#FFFFFF;gradientColor=none;shape=stencil(UzV2Ls5ILEhVNTIoLinKz04tz0wpyVA1dlE1MsrMy0gtyiwBslSNXVWNndPyi1LTi/JL81Ig/IJEkEoQKze/DGRCBUSfrpmeiRFIl5FBJUTE0MAAzHeDKM/JzENSbmmsZ2pBvHJDAwzj8agmRS1BdwMZCD+nZebkQIIMWR49jIBCkPA1dgUA);strokeColor=#000000;spacingTop=-1;spacingBottom=-1;spacingLeft=-1;spacingRight=-1;points=[[1,0.5,0],[0.5,0.5,0],[0.5,0,0]];labelBackgroundColor=none;rounded=0;html=1;whiteSpace=wrap;" parent="1" vertex="1">
            <mxGeometry x="1955" y="147" width="148" height="38" as="geometry" />
          </mxCell>
        </UserObject>
        <mxCell id="44" value="&lt;div style=&quot;font-size: 1px&quot;&gt;&lt;font style=&quot;font-size:16.93px;font-family:SimSun;color:#000000;direction:ltr;letter-spacing:0px;line-height:120%;opacity:1&quot;&gt;主影像融合&lt;/font&gt;&lt;font style=&quot;font-size:11.29px;font-family:Themed;color:#000000;direction:ltr;letter-spacing:0px;line-height:120%;opacity:1&quot;&gt;&lt;br/&gt;&lt;/font&gt;&lt;/div&gt;" style="text;vsdxID=61;fillColor=none;gradientColor=none;strokeColor=none;spacingTop=-1;spacingBottom=-1;spacingLeft=-1;spacingRight=-1;points=[[1,0.5,0],[0.5,0.5,0],[0.5,0,0]];labelBackgroundColor=none;rounded=0;html=1;whiteSpace=wrap;verticalAlign=middle;align=center;overflow=width;;html=1;" parent="43" vertex="1">
          <mxGeometry x="24.67" width="98.67" height="38" as="geometry" />
        </mxCell>
        <UserObject label="" tags="流程图" id="45">
          <mxCell style="vsdxID=63;fillColor=#FFFFFF;gradientColor=none;shape=stencil(UzV2Ls5ILEhVNTIoLinKz04tz0wpyVA1dlE1MsrMy0gtyiwBslSNXVWNndPyi1LTi/JL81Ig/IJEkEoQKze/DGRCBUSfrpmeiRFIl5FBJUTE0MAAzHeDKM/JzENSbmmsZ2pBvHJDAwzj8agmRS1BdwMZCD+nZebkQIIMWR49jIBCkPA1dgUA);strokeColor=#000000;spacingTop=-1;spacingBottom=-1;spacingLeft=-1;spacingRight=-1;points=[[1,0.5,0],[0.5,0.5,0],[0.5,0,0]];labelBackgroundColor=none;rounded=0;html=1;whiteSpace=wrap;" parent="1" vertex="1">
            <mxGeometry x="2130" y="147" width="148" height="38" as="geometry" />
          </mxCell>
        </UserObject>
        <mxCell id="46" value="&lt;div style=&quot;font-size: 1px&quot;&gt;&lt;font style=&quot;font-size:16.93px;font-family:SimSun;color:#000000;direction:ltr;letter-spacing:0px;line-height:120%;opacity:1&quot;&gt;从影像去斜&lt;/font&gt;&lt;font style=&quot;font-size:11.29px;font-family:Themed;color:#000000;direction:ltr;letter-spacing:0px;line-height:120%;opacity:1&quot;&gt;&lt;br/&gt;&lt;/font&gt;&lt;/div&gt;" style="text;vsdxID=63;fillColor=none;gradientColor=none;strokeColor=none;spacingTop=-1;spacingBottom=-1;spacingLeft=-1;spacingRight=-1;points=[[1,0.5,0],[0.5,0.5,0],[0.5,0,0]];labelBackgroundColor=none;rounded=0;html=1;whiteSpace=wrap;verticalAlign=middle;align=center;overflow=width;;html=1;" parent="45" vertex="1">
          <mxGeometry x="24.67" width="98.67" height="38" as="geometry" />
        </mxCell>
        <UserObject label="&lt;div style=&quot;font-size: 1px&quot;&gt;&lt;font style=&quot;font-size:16.93px;font-family:SimSun;color:#000000;direction:ltr;letter-spacing:0px;line-height:120%;opacity:1&quot;&gt;&lt;b&gt;预处理&lt;br/&gt;&lt;/b&gt;&lt;/font&gt;&lt;font style=&quot;font-size:16.93px;font-family:Themed;color:#000000;direction:ltr;letter-spacing:0px;line-height:120%;opacity:1&quot;&gt;（约&lt;/font&gt;&lt;font style=&quot;font-size:16.93px;font-family:Themed;color:#ff0000;direction:ltr;letter-spacing:0px;line-height:120%;opacity:1&quot;&gt;&lt;b&gt;13.5人天&lt;/b&gt;&lt;/font&gt;&lt;font style=&quot;font-size:16.93px;font-family:Themed;color:#000000;direction:ltr;letter-spacing:0px;line-height:120%;opacity:1&quot;&gt;）&lt;/font&gt;&lt;font style=&quot;font-size:11.29px;font-family:Themed;color:#000000;direction:ltr;letter-spacing:0px;line-height:120%;opacity:1&quot;&gt;&lt;br/&gt;&lt;/font&gt;&lt;/div&gt;" tags="流程图" id="47">
          <mxCell style="verticalAlign=middle;align=center;overflow=width;vsdxID=130;fillColor=#FFFFFF;gradientColor=none;shape=stencil(tVJdE4IgEPw1POIg9OG76f9gEpWJwDko7d8HYZNm9tL0tne7dzcLi1huW94JRIl1YE6il5VrETsgSqVuBUjnEWIFYnltQDRgLrqKdceDMqCzuYYNQ5xL90m6CVOU3MYOIY+6jHIl9USe0STbfZNzOHoOltth1G+jfH3hk8d8kBaDcdxJo2ec4tAI7E/hWvFmRtleiG7R/uhlaf0nJ+sv+RcvHrz+tJZKxUhM+fcM+FbMDyvu);strokeColor=#000000;spacingTop=-1;spacingBottom=-1;spacingLeft=-1;spacingRight=-1;points=[[0.5,0,0],[0.5,0.5,0],[1,0.5,0]];labelBackgroundColor=none;rounded=0;html=1;whiteSpace=wrap;" parent="1" vertex="1">
            <mxGeometry x="2298" y="147" width="140" height="48" as="geometry" />
          </mxCell>
        </UserObject>
        <UserObject label="" tags="背景" id="48">
          <mxCell style="vsdxID=170;fillColor=none;gradientColor=none;shape=stencil(nZBLDoAgDERP0z3SIyjew0SURgSD+Lu9kMZoXLhwN9O+tukAlrNpJg1SzDH4QW/URgNYgZTkjA4UkwJUgGXng+6DX1zLfmoymdXo17xh5zmRJ6Q42BWCfc2oJfdAr+Yv+AP9Cb7OJ3H/2JG1HNGz/84klThPVCc=);dashed=1;strokeColor=#000000;points=[];labelBackgroundColor=none;rounded=0;html=1;whiteSpace=wrap;" parent="1" vertex="1">
            <mxGeometry x="1606" y="127" width="847" height="81" as="geometry" />
          </mxCell>
        </UserObject>
        <UserObject label="&lt;div style=&quot;font-size: 1px&quot;&gt;&lt;font style=&quot;font-size:16.93px;font-family:SimSun;color:#000000;direction:ltr;letter-spacing:0px;line-height:120%;opacity:1&quot;&gt;去除大气&lt;/font&gt;&lt;font style=&quot;font-size:11.29px;font-family:Themed;color:#000000;direction:ltr;letter-spacing:0px;line-height:120%;opacity:1&quot;&gt;&lt;br/&gt;&lt;/font&gt;&lt;/div&gt;" tags="流程图" id="49">
          <mxCell style="verticalAlign=middle;align=center;overflow=width;vsdxID=85;fillColor=#FFFFFF;gradientColor=none;shape=stencil(1VPBDsIgDP0ajiwMsiWep/4HcWwjIiwF3fb3grg5ZzgZD95eX1/bPFoQq2zHe4EosQ7MWQyydh1ie0Sp1J0A6TxC7IBY1RgQLZirrmPc86AM6GJuocMY68qsKEIRJVMkyCM6Rq2SeqXNCUlLOZx8Bp7SosjKXRTDNFeXGS0jl2i4xCPmo7QYjONOGr0eRxSHVmA/DjeKt28pOwjRr+g87eXD9zz7CzuJt/yJGw9eK22kUvEilnxq33+3Q5J0vXHswfboPRU/DDvcAQ==);strokeColor=#000000;spacingTop=-1;spacingBottom=-1;spacingLeft=-1;spacingRight=-1;points=[[0,0.5,0],[0.5,0,0],[0.5,1,0],[1.07,0.5,0],[1,0.5,0]];labelBackgroundColor=none;rounded=0;html=1;whiteSpace=wrap;" parent="1" vertex="1">
            <mxGeometry x="1907" y="478" width="114" height="60" as="geometry" />
          </mxCell>
        </UserObject>
        <UserObject label="&lt;div style=&quot;font-size: 1px&quot;&gt;&lt;font style=&quot;font-size:16.93px;font-family:SimSun;color:#000000;direction:ltr;letter-spacing:0px;line-height:120%;opacity:1&quot;&gt;转地理编码&lt;/font&gt;&lt;font style=&quot;font-size:11.29px;font-family:Themed;color:#000000;direction:ltr;letter-spacing:0px;line-height:120%;opacity:1&quot;&gt;&lt;br/&gt;&lt;/font&gt;&lt;/div&gt;" tags="流程图" id="50">
          <mxCell style="verticalAlign=middle;align=center;overflow=width;vsdxID=87;fillColor=#FFFFFF;gradientColor=none;shape=stencil(1VPBDsIgDP0ajiwMsiWep/4HcWwjIiwF3fb3grg5ZzgZD95eX1/bPFoQq2zHe4EosQ7MWQyydh1ie0Sp1J0A6TxC7IBY1RgQLZirrmPc86AM6GJuocMY68qsKEIRJVMkyCM6Rq2SeqXNCUlLOZx8Bp7SosjKXRTDNFeXGS0jl2i4xCPmo7QYjONOGr0eRxSHVmA/DjeKt28pOwjRr+g87eXD9zz7CzuJt/yJGw9eK22kUvEilnxq33+3Q5J0vXHswfboPRU/DDvcAQ==);strokeColor=#000000;spacingTop=-1;spacingBottom=-1;spacingLeft=-1;spacingRight=-1;points=[[0,0.5,0],[0.5,0,0],[0.5,1,0],[1.07,0.5,0],[1,0.5,0]];labelBackgroundColor=none;rounded=0;html=1;whiteSpace=wrap;" parent="1" vertex="1">
            <mxGeometry x="2077" y="478" width="114" height="60" as="geometry" />
          </mxCell>
        </UserObject>
        <UserObject label="&lt;div style=&quot;font-size: 1px&quot;&gt;&lt;font style=&quot;font-size:16.93px;font-family:SimSun;color:#000000;direction:ltr;letter-spacing:0px;line-height:120%;opacity:1&quot;&gt;&lt;b&gt;Staking处理&lt;br/&gt;&lt;/b&gt;&lt;/font&gt;&lt;font style=&quot;font-size:16.93px;font-family:Themed;color:#000000;direction:ltr;letter-spacing:0px;line-height:120%;opacity:1&quot;&gt;（约&lt;/font&gt;&lt;font style=&quot;font-size:16.93px;font-family:Themed;color:#ff0000;direction:ltr;letter-spacing:0px;line-height:120%;opacity:1&quot;&gt;&lt;b&gt;0.75人天&lt;/b&gt;&lt;/font&gt;&lt;font style=&quot;font-size:16.93px;font-family:Themed;color:#000000;direction:ltr;letter-spacing:0px;line-height:120%;opacity:1&quot;&gt;）&lt;/font&gt;&lt;font style=&quot;font-size:11.29px;font-family:Themed;color:#000000;direction:ltr;letter-spacing:0px;line-height:120%;opacity:1&quot;&gt;&lt;br/&gt;&lt;/font&gt;&lt;/div&gt;" tags="流程图" id="51">
          <mxCell style="verticalAlign=middle;align=center;overflow=width;vsdxID=134;fillColor=#FFFFFF;gradientColor=none;shape=stencil(tVJdE4IgEPw1POIg9OG76f9gEpWJwDko7d8HYZNm9tL0tne7dzcLi1huW94JRIl1YE6il5VrETsgSqVuBUjnEWIFYnltQDRgLrqKdceDMqCzuYYNQ5xL90m6CVOU3MYOIY+6jHIl9USe0STbfZNzOHoOltth1G+jfH3hk8d8kBaDcdxJo2ec4tAI7E/hWvFmRtleiG7R/uhlaf0nJ+sv+RcvHrz+tJZKxUhM+fcM+FbMDyvu);strokeColor=#000000;spacingTop=-1;spacingBottom=-1;spacingLeft=-1;spacingRight=-1;points=[[0.5,0,0],[0.5,0.5,0],[1,0.5,0]];labelBackgroundColor=none;rounded=0;html=1;whiteSpace=wrap;" parent="1" vertex="1">
            <mxGeometry x="2297" y="484" width="140" height="48" as="geometry" />
          </mxCell>
        </UserObject>
        <UserObject label="" tags="背景" id="52">
          <mxCell style="vsdxID=156;fillColor=none;gradientColor=none;shape=stencil(nZBLDoAgDERP0z3SIyjew0SURgSD+Lu9kMZoXLhwN9O+tukAlrNpJg1SzDH4QW/URgNYgZTkjA4UkwJUgGXng+6DX1zLfmoymdXo17xh5zmRJ6Q42BWCfc2oJfdAr+Yv+AP9Cb7OJ3H/2JG1HNGz/84klThPVCc=);dashed=1;strokeColor=#000000;points=[];labelBackgroundColor=none;rounded=0;html=1;whiteSpace=wrap;" parent="1" vertex="1">
            <mxGeometry x="1605" y="467" width="847" height="81" as="geometry" />
          </mxCell>
        </UserObject>
        <UserObject label="" tags="连接线" id="119">
          <mxCell style="vsdxID=178;edgeStyle=none;startArrow=none;endArrow=block;startSize=9;endSize=9;spacingTop=0;spacingBottom=0;spacingLeft=0;spacingRight=0;verticalAlign=middle;html=1;labelBackgroundColor=#ffffff;rounded=0;" parent="1" edge="1">
            <mxGeometry relative="1" as="geometry">
              <mxPoint x="10" as="offset" />
              <Array as="points">
                <mxPoint x="1978" y="223.33" />
                <mxPoint x="1978" y="223.33" />
              </Array>
              <mxPoint x="1978" y="208" as="sourcePoint" />
              <mxPoint x="1978" y="238" as="targetPoint" />
            </mxGeometry>
          </mxCell>
        </UserObject>
        <UserObject label="" tags="连接线" id="120">
          <mxCell style="vsdxID=179;edgeStyle=none;startArrow=none;endArrow=block;startSize=9;endSize=9;spacingTop=0;spacingBottom=0;spacingLeft=0;spacingRight=0;verticalAlign=middle;html=1;labelBackgroundColor=#ffffff;rounded=0;" parent="1" edge="1">
            <mxGeometry relative="1" as="geometry">
              <mxPoint x="10" y="-1" as="offset" />
              <Array as="points" />
              <mxPoint x="1978" y="319" as="sourcePoint" />
              <mxPoint x="1978" y="355" as="targetPoint" />
            </mxGeometry>
          </mxCell>
        </UserObject>
        <UserObject label="" tags="连接线" id="121">
          <mxCell style="vsdxID=180;edgeStyle=none;startArrow=none;endArrow=block;startSize=9;endSize=9;spacingTop=0;spacingBottom=0;spacingLeft=0;spacingRight=0;verticalAlign=middle;html=1;labelBackgroundColor=#ffffff;rounded=0;" parent="1" edge="1">
            <mxGeometry relative="1" as="geometry">
              <mxPoint x="10" y="-1" as="offset" />
              <Array as="points" />
              <mxPoint x="1978" y="436" as="sourcePoint" />
              <mxPoint x="1978" y="463" as="targetPoint" />
            </mxGeometry>
          </mxCell>
        </UserObject>
        <UserObject label="" tags="连接线" id="122">
          <mxCell style="vsdxID=181;edgeStyle=none;startArrow=none;endArrow=none;startSize=9;endSize=9;spacingTop=0;spacingBottom=0;spacingLeft=0;spacingRight=0;verticalAlign=middle;html=1;labelBackgroundColor=#ffffff;rounded=0;" parent="1" edge="1">
            <mxGeometry relative="1" as="geometry">
              <mxPoint x="1" as="offset" />
              <Array as="points">
                <mxPoint x="2482" y="106" />
              </Array>
              <mxPoint x="2482" y="508" as="sourcePoint" />
              <mxPoint x="2500" y="106" as="targetPoint" />
            </mxGeometry>
          </mxCell>
        </UserObject>
        <UserObject label="" tags="连接线" id="123">
          <mxCell style="vsdxID=182;edgeStyle=none;startArrow=classic;endArrow=none;startSize=9;endSize=9;spacingTop=0;spacingBottom=0;spacingLeft=0;spacingRight=0;verticalAlign=middle;html=1;labelBackgroundColor=#ffffff;rounded=0;" parent="1" edge="1">
            <mxGeometry relative="1" as="geometry">
              <mxPoint x="-1" as="offset" />
              <Array as="points" />
              <mxPoint x="2508" y="106" as="sourcePoint" />
              <mxPoint x="2486" y="106" as="targetPoint" />
            </mxGeometry>
          </mxCell>
        </UserObject>
        <UserObject label="" tags="连接线" id="124">
          <mxCell style="vsdxID=183;edgeStyle=none;startArrow=none;endArrow=none;startSize=9;endSize=9;spacingTop=0;spacingBottom=0;spacingLeft=0;spacingRight=0;verticalAlign=middle;html=1;labelBackgroundColor=#ffffff;rounded=0;" parent="1" edge="1">
            <mxGeometry relative="1" as="geometry">
              <mxPoint x="10" y="-1" as="offset" />
              <Array as="points" />
              <mxPoint x="2529" y="684" as="sourcePoint" />
              <mxPoint x="2529" y="688" as="targetPoint" />
            </mxGeometry>
          </mxCell>
        </UserObject>
        <UserObject label="&lt;div style=&quot;font-size: 1px&quot;&gt;&lt;font style=&quot;font-size:16.93px;font-family:SimSun;color:#000000;direction:ltr;letter-spacing:0px;line-height:120%;opacity:1&quot;&gt;干涉对组合&lt;/font&gt;&lt;font style=&quot;font-size:11.29px;font-family:Themed;color:#000000;direction:ltr;letter-spacing:0px;line-height:120%;opacity:1&quot;&gt;&lt;br/&gt;&lt;/font&gt;&lt;/div&gt;" tags="流程图" id="53">
          <mxCell style="verticalAlign=middle;align=center;overflow=width;vsdxID=67;fillColor=#FFFFFF;gradientColor=none;shape=stencil(rVJBEoIwDHxNjzClnXbGM+I/OlKgY6VMqAK/txjRKnLSW7LZZLNtCM/7RnWaMNp7cCc9mNI3hO8JY6ZtNBgfIsILwvPKga7BXdoS807NzDk6u+s8YcQ+mQoxNzE6IUDv2QG51rQRN6N0m6rgGCrwoAqRyh2SYVq6ZcokYhsDn/mYqNH0CTivvHFtLEetglonQS6prKrfSv2gdbeCv3pZ+V60f7Cz8Zb/cpPF+4Xg9aWVsRYvIq5/nkCA8Hx4cQM=);strokeColor=#000000;spacingTop=-1;spacingBottom=-1;spacingLeft=-1;spacingRight=-1;points=[[0,0.5,0],[0.5,0,0],[0.5,1,0],[0.93,0.5,0]];labelBackgroundColor=none;rounded=0;html=1;whiteSpace=wrap;" parent="1" vertex="1">
            <mxGeometry x="1659" y="247" width="114" height="60" as="geometry" />
          </mxCell>
        </UserObject>
        <UserObject label="&lt;div style=&quot;font-size: 1px&quot;&gt;&lt;font style=&quot;font-size:16.93px;font-family:SimSun;color:#000000;direction:ltr;letter-spacing:0px;line-height:120%;opacity:1&quot;&gt;差分干涉&lt;/font&gt;&lt;font style=&quot;font-size:11.29px;font-family:Themed;color:#000000;direction:ltr;letter-spacing:0px;line-height:120%;opacity:1&quot;&gt;&lt;br/&gt;&lt;/font&gt;&lt;/div&gt;" tags="流程图" id="54">
          <mxCell style="verticalAlign=middle;align=center;overflow=width;vsdxID=69;fillColor=#FFFFFF;gradientColor=none;shape=stencil(rVJBEoIwDHxNjzClnXbGM+I/OlKgY6VMqAK/txjRKnLSW7LZZLNtCM/7RnWaMNp7cCc9mNI3hO8JY6ZtNBgfIsILwvPKga7BXdoS807NzDk6u+s8YcQ+mQoxNzE6IUDv2QG51rQRN6N0m6rgGCrwoAqRyh2SYVq6ZcokYhsDn/mYqNH0CTivvHFtLEetglonQS6prKrfSv2gdbeCv3pZ+V60f7Cz8Zb/cpPF+4Xg9aWVsRYvIq5/nkCA8Hx4cQM=);strokeColor=#000000;spacingTop=-1;spacingBottom=-1;spacingLeft=-1;spacingRight=-1;points=[[0,0.5,0],[0.5,0,0],[0.5,1,0],[0.93,0.5,0]];labelBackgroundColor=none;rounded=0;html=1;whiteSpace=wrap;" parent="1" vertex="1">
            <mxGeometry x="1814" y="247" width="114" height="60" as="geometry" />
          </mxCell>
        </UserObject>
        <UserObject label="&lt;div style=&quot;font-size: 1px&quot;&gt;&lt;font style=&quot;font-size:16.93px;font-family:SimSun;color:#000000;direction:ltr;letter-spacing:0px;line-height:120%;opacity:1&quot;&gt;滤波&lt;/font&gt;&lt;font style=&quot;font-size:11.29px;font-family:Themed;color:#000000;direction:ltr;letter-spacing:0px;line-height:120%;opacity:1&quot;&gt;&lt;br/&gt;&lt;/font&gt;&lt;/div&gt;" tags="流程图" id="55">
          <mxCell style="verticalAlign=middle;align=center;overflow=width;vsdxID=71;fillColor=#FFFFFF;gradientColor=none;shape=stencil(rVJBEoIwDHxNjzClnXbGM+I/OlKgY6VMqAK/txjRKnLSW7LZZLNtCM/7RnWaMNp7cCc9mNI3hO8JY6ZtNBgfIsILwvPKga7BXdoS807NzDk6u+s8YcQ+mQoxNzE6IUDv2QG51rQRN6N0m6rgGCrwoAqRyh2SYVq6ZcokYhsDn/mYqNH0CTivvHFtLEetglonQS6prKrfSv2gdbeCv3pZ+V60f7Cz8Zb/cpPF+4Xg9aWVsRYvIq5/nkCA8Hx4cQM=);strokeColor=#000000;spacingTop=-1;spacingBottom=-1;spacingLeft=-1;spacingRight=-1;points=[[0,0.5,0],[0.5,0,0],[0.5,1,0],[0.93,0.5,0]];labelBackgroundColor=none;rounded=0;html=1;whiteSpace=wrap;" parent="1" vertex="1">
            <mxGeometry x="1969" y="247" width="114" height="60" as="geometry" />
          </mxCell>
        </UserObject>
        <UserObject label="&lt;div style=&quot;font-size: 1px&quot;&gt;&lt;font style=&quot;font-size:16.93px;font-family:SimSun;color:#000000;direction:ltr;letter-spacing:0px;line-height:120%;opacity:1&quot;&gt;解缠&lt;/font&gt;&lt;font style=&quot;font-size:11.29px;font-family:Themed;color:#000000;direction:ltr;letter-spacing:0px;line-height:120%;opacity:1&quot;&gt;&lt;br/&gt;&lt;/font&gt;&lt;/div&gt;" tags="流程图" id="56">
          <mxCell style="verticalAlign=middle;align=center;overflow=width;vsdxID=74;fillColor=#FFFFFF;gradientColor=none;shape=stencil(rVJBEoIwDHxNjzClnXbGM+I/OlKgY6VMqAK/txjRKnLSW7LZZLNtCM/7RnWaMNp7cCc9mNI3hO8JY6ZtNBgfIsILwvPKga7BXdoS807NzDk6u+s8YcQ+mQoxNzE6IUDv2QG51rQRN6N0m6rgGCrwoAqRyh2SYVq6ZcokYhsDn/mYqNH0CTivvHFtLEetglonQS6prKrfSv2gdbeCv3pZ+V60f7Cz8Zb/cpPF+4Xg9aWVsRYvIq5/nkCA8Hx4cQM=);strokeColor=#000000;spacingTop=-1;spacingBottom=-1;spacingLeft=-1;spacingRight=-1;points=[[0,0.5,0],[0.5,0,0],[0.5,1,0],[0.93,0.5,0]];labelBackgroundColor=none;rounded=0;html=1;whiteSpace=wrap;" parent="1" vertex="1">
            <mxGeometry x="2123" y="247" width="114" height="60" as="geometry" />
          </mxCell>
        </UserObject>
        <UserObject label="&lt;div style=&quot;font-size: 1px&quot;&gt;&lt;font style=&quot;font-size:16.93px;font-family:SimSun;color:#000000;direction:ltr;letter-spacing:0px;line-height:120%;opacity:1&quot;&gt;&lt;b&gt;第一次差分干涉&lt;/b&gt;&lt;/font&gt;&lt;font style=&quot;font-size:16.93px;font-family:Themed;color:#000000;direction:ltr;letter-spacing:0px;line-height:120%;opacity:1&quot;&gt;（约&lt;/font&gt;&lt;font style=&quot;font-size:16.93px;font-family:Themed;color:#ff0000;direction:ltr;letter-spacing:0px;line-height:120%;opacity:1&quot;&gt;&lt;b&gt;7.5人天&lt;/b&gt;&lt;/font&gt;&lt;font style=&quot;font-size:16.93px;font-family:Themed;color:#000000;direction:ltr;letter-spacing:0px;line-height:120%;opacity:1&quot;&gt;）&lt;/font&gt;&lt;font style=&quot;font-size:11.29px;font-family:Themed;color:#000000;direction:ltr;letter-spacing:0px;line-height:120%;opacity:1&quot;&gt;&lt;br/&gt;&lt;/font&gt;&lt;/div&gt;" tags="流程图" id="57">
          <mxCell style="verticalAlign=middle;align=center;overflow=width;vsdxID=132;fillColor=#FFFFFF;gradientColor=none;shape=stencil(tVJdE4IgEPw1POIg9OG76f9gEpWJwDko7d8HYZNm9tL0tne7dzcLi1huW94JRIl1YE6il5VrETsgSqVuBUjnEWIFYnltQDRgLrqKdceDMqCzuYYNQ5xL90m6CVOU3MYOIY+6jHIl9USe0STbfZNzOHoOltth1G+jfH3hk8d8kBaDcdxJo2ec4tAI7E/hWvFmRtleiG7R/uhlaf0nJ+sv+RcvHrz+tJZKxUhM+fcM+FbMDyvu);strokeColor=#000000;spacingTop=-1;spacingBottom=-1;spacingLeft=-1;spacingRight=-1;points=[[0.5,0,0],[0.5,0.5,0],[1,0.5,0]];labelBackgroundColor=none;rounded=0;html=1;whiteSpace=wrap;" parent="1" vertex="1">
            <mxGeometry x="2298" y="253" width="140" height="48" as="geometry" />
          </mxCell>
        </UserObject>
        <UserObject label="" tags="背景" id="58">
          <mxCell style="vsdxID=154;fillColor=none;gradientColor=none;shape=stencil(nZBLDoAgDERP0z3SIyjew0SURgSD+Lu9kMZoXLhwN9O+tukAlrNpJg1SzDH4QW/URgNYgZTkjA4UkwJUgGXng+6DX1zLfmoymdXo17xh5zmRJ6Q42BWCfc2oJfdAr+Yv+AP9Cb7OJ3H/2JG1HNGz/84klThPVCc=);dashed=1;strokeColor=#000000;points=[];labelBackgroundColor=none;rounded=0;html=1;whiteSpace=wrap;" parent="1" vertex="1">
            <mxGeometry x="1606" y="238" width="847" height="81" as="geometry" />
          </mxCell>
        </UserObject>
        <UserObject label="&lt;div style=&quot;font-size: 1px&quot;&gt;&lt;p style=&quot;text-align:center;margin-left:0;margin-right:0;margin-top:0px;margin-bottom:0px;text-indent:0;vertical-align:middle;direction:ltr;&quot;&gt;&lt;font style=&quot;font-size:19.76px;font-family:SimSun;color:#000000;direction:ltr;letter-spacing:0px;line-height:120%;opacity:1&quot;&gt;光学遥感处理与&lt;/font&gt;&lt;font style=&quot;font-size:19.76px;font-family:SimSun;color:#000000;direction:ltr;letter-spacing:0px;line-height:120%;opacity:1&quot;&gt;识别&lt;/font&gt;&lt;font style=&quot;font-size:19.76px;font-family:SimSun;color:#000000;direction:ltr;letter-spacing:0px;line-height:120%;opacity:1&quot;&gt;流程&lt;/font&gt;&lt;font style=&quot;font-size:11.29px;font-family:Themed;color:#000000;direction:ltr;letter-spacing:0px;line-height:120%;opacity:1&quot;&gt;&lt;br/&gt;&lt;/font&gt;&lt;/p&gt;&lt;/div&gt;" tags="流程图" id="59">
          <mxCell style="verticalAlign=middle;align=center;overflow=width;vsdxID=190;fillColor=#FFFFFF;gradientColor=none;shape=stencil(nZBLDoAgDERP0z3SIyjew0SURgSD+Lu9kMZoXLhwN9O+tukAlrNpJg1SzDH4QW/URgNYgZTkjA4UkwJUgGXng+6DX1zLfmoymdXo17xh5zmRJ6Q42BWCfc2oJfdAr+Yv+AP9Cb7OJ3H/2JG1HNGz/84klThPVCc=);strokeColor=#000000;spacingTop=-1;spacingBottom=-1;spacingLeft=-1;spacingRight=-1;points=[[1,0.5,0],[0.5,0.5,0],[0.5,0,0]];labelBackgroundColor=none;rounded=0;html=1;whiteSpace=wrap;" parent="1" vertex="1">
            <mxGeometry x="898" y="175" width="356" height="50" as="geometry" />
          </mxCell>
        </UserObject>
        <UserObject label="&lt;div style=&quot;font-size: 1px&quot;&gt;&lt;p style=&quot;text-align:center;margin-left:0;margin-right:0;margin-top:0px;margin-bottom:0px;text-indent:0;vertical-align:middle;direction:ltr;&quot;&gt;&lt;font style=&quot;font-size:16.93px;font-family:SimSun;color:#000000;direction:ltr;letter-spacing:0px;line-height:120%;opacity:1&quot;&gt;&lt;b&gt;形变靶区圈定&lt;br/&gt;&lt;/b&gt;&lt;/font&gt;&lt;font style=&quot;font-size:16.93px;font-family:Themed;color:#000000;direction:ltr;letter-spacing:0px;line-height:120%;opacity:1&quot;&gt;（约&lt;/font&gt;&lt;font style=&quot;font-size:16.93px;font-family:Themed;color:#ff0000;direction:ltr;letter-spacing:0px;line-height:120%;opacity:1&quot;&gt;&lt;b&gt;0.05&lt;/b&gt;&lt;/font&gt;&lt;font style=&quot;font-size:16.93px;font-family:Themed;color:#ff0000;direction:ltr;letter-spacing:0px;line-height:120%;opacity:1&quot;&gt;&lt;b&gt;h&lt;/b&gt;&lt;/font&gt;&lt;font style=&quot;font-size:16.93px;font-family:Themed;color:#ff0000;direction:ltr;letter-spacing:0px;line-height:120%;opacity:1&quot;&gt;&lt;b&gt;/km&lt;/b&gt;&lt;/font&gt;&lt;font style=&quot;font-size:16.93px;font-family:Themed;color:#ff0000;direction:ltr;letter-spacing:0px;line-height:120%;opacity:1&quot;&gt;&lt;b&gt;&lt;sup&gt;2&lt;/sup&gt;&lt;/b&gt;&lt;/font&gt;&lt;font style=&quot;font-size:16.93px;font-family:Themed;color:#000000;direction:ltr;letter-spacing:0px;line-height:120%;opacity:1&quot;&gt;）&lt;/font&gt;&lt;font style=&quot;font-size:11.29px;font-family:Themed;color:#000000;direction:ltr;letter-spacing:0px;line-height:120%;opacity:1&quot;&gt;&lt;br/&gt;&lt;/font&gt;&lt;/p&gt;&lt;/div&gt;" tags="流程图" id="60">
          <mxCell style="verticalAlign=middle;align=center;overflow=width;vsdxID=196;fillColor=#FFFFFF;gradientColor=none;shape=stencil(tVJdE4IgEPw1POIg9OG76f9gEpWJwDko7d8HYZNm9tL0tne7dzcLi1huW94JRIl1YE6il5VrETsgSqVuBUjnEWIFYnltQDRgLrqKdceDMqCzuYYNQ5xL90m6CVOU3MYOIY+6jHIl9USe0STbfZNzOHoOltth1G+jfH3hk8d8kBaDcdxJo2ec4tAI7E/hWvFmRtleiG7R/uhlaf0nJ+sv+RcvHrz+tJZKxUhM+fcM+FbMDyvu);strokeColor=#000000;spacingTop=-1;spacingBottom=-1;spacingLeft=-1;spacingRight=-1;points=[[0.5,0,0],[0.5,0.5,0],[1,0.5,0]];labelBackgroundColor=none;rounded=0;html=1;whiteSpace=wrap;" parent="1" vertex="1">
            <mxGeometry x="3110" y="622" width="140" height="48" as="geometry" />
          </mxCell>
        </UserObject>
        <UserObject label="" tags="背景" id="61">
          <mxCell style="vsdxID=197;fillColor=none;gradientColor=none;shape=stencil(nZBLDoAgDERP0z3SIyjew0SURgSD+Lu9kMZoXLhwN9O+tukAlrNpJg1SzDH4QW/URgNYgZTkjA4UkwJUgGXng+6DX1zLfmoymdXo17xh5zmRJ6Q42BWCfc2oJfdAr+Yv+AP9Cb7OJ3H/2JG1HNGz/84klThPVCc=);dashed=1;strokeColor=#000000;points=[];labelBackgroundColor=none;rounded=0;html=1;whiteSpace=wrap;" parent="1" vertex="1">
            <mxGeometry x="2507" y="606" width="750" height="81" as="geometry" />
          </mxCell>
        </UserObject>
        <UserObject label="" tags="流程图" id="62">
          <mxCell style="vsdxID=198;fillColor=#FFFFFF;gradientColor=none;shape=stencil(UzV2Ls5ILEhVNTIoLinKz04tz0wpyVA1dlE1MsrMy0gtyiwBslSNXVWNndPyi1LTi/JL81Ig/IJEkEoQKze/DGRCBUSfrqmemSlIl5FBJUTE0MAAzHeDKM/JzENSbmmiZ0yCckMDDOPxqCZFLUF3AxkIP6dl5uRAggxZHj2MgEKQ8DV2BQA=);strokeColor=#000000;spacingTop=-1;spacingBottom=-1;spacingLeft=-1;spacingRight=-1;points=[[1,0.5,0],[0.5,0.5,0],[0.5,0,0]];labelBackgroundColor=none;rounded=0;html=1;whiteSpace=wrap;" parent="1" vertex="1">
            <mxGeometry x="2545" y="627" width="168" height="38" as="geometry" />
          </mxCell>
        </UserObject>
        <mxCell id="63" value="&lt;div style=&quot;font-size: 1px&quot;&gt;&lt;font style=&quot;font-size:16.93px;font-family:SimSun;color:#000000;direction:ltr;letter-spacing:0px;line-height:120%;opacity:1&quot;&gt;叠加DEM&lt;br/&gt;&lt;/font&gt;&lt;/div&gt;" style="text;vsdxID=198;fillColor=none;gradientColor=none;strokeColor=none;spacingTop=-1;spacingBottom=-1;spacingLeft=-1;spacingRight=-1;points=[[1,0.5,0],[0.5,0.5,0],[0.5,0,0]];labelBackgroundColor=none;rounded=0;html=1;whiteSpace=wrap;verticalAlign=middle;align=center;overflow=width;;html=1;" parent="62" vertex="1">
          <mxGeometry x="28" width="112" height="38" as="geometry" />
        </mxCell>
        <UserObject label="" tags="流程图" id="64">
          <mxCell style="vsdxID=199;fillColor=#FFFFFF;gradientColor=none;shape=stencil(UzV2Ls5ILEhVNTIoLinKz04tz0wpyVA1dlE1MsrMy0gtyiwBslSNXVWNndPyi1LTi/JL81Ig/IJEkEoQKze/DGRCBUSfrrmeiRFIl5FBJUTE0MAAzHeDKM/JzENSbmmkZ2pBvHJDAwzj8agmRS1BdwMZCD+nZebkQIIMWR49jIBCkPA1dgUA);strokeColor=#000000;spacingTop=-1;spacingBottom=-1;spacingLeft=-1;spacingRight=-1;points=[[1,0.5,0],[0.5,0.5,0],[0.5,0,0]];labelBackgroundColor=none;rounded=0;html=1;whiteSpace=wrap;" parent="1" vertex="1">
            <mxGeometry x="2762" y="627" width="128" height="38" as="geometry" />
          </mxCell>
        </UserObject>
        <mxCell id="65" value="&lt;div style=&quot;font-size: 1px&quot;&gt;&lt;font style=&quot;font-size:16.93px;font-family:SimSun;color:#000000;direction:ltr;letter-spacing:0px;line-height:120%;opacity:1&quot;&gt;勾画矢量&lt;br/&gt;&lt;/font&gt;&lt;/div&gt;" style="text;vsdxID=199;fillColor=none;gradientColor=none;strokeColor=none;spacingTop=-1;spacingBottom=-1;spacingLeft=-1;spacingRight=-1;points=[[1,0.5,0],[0.5,0.5,0],[0.5,0,0]];labelBackgroundColor=none;rounded=0;html=1;whiteSpace=wrap;verticalAlign=middle;align=center;overflow=width;;html=1;" parent="64" vertex="1">
          <mxGeometry x="21.33" width="85.33" height="38" as="geometry" />
        </mxCell>
        <UserObject label="" tags="流程图" id="66">
          <mxCell style="vsdxID=200;fillColor=#FFFFFF;gradientColor=none;shape=stencil(UzV2Ls5ILEhVNTIoLinKz04tz0wpyVA1dlE1MsrMy0gtyiwBslSNXVWNndPyi1LTi/JL81Ig/IJEkEoQKze/DGRCBUSfrrmeiRFIl5FBJUTE0MAAzHeDKM/JzENSbmmkZ2pBvHJDAwzj8agmRS1BdwMZCD+nZebkQIIMWR49jIBCkPA1dgUA);strokeColor=#000000;spacingTop=-1;spacingBottom=-1;spacingLeft=-1;spacingRight=-1;points=[[1,0.5,0],[0.5,0.5,0],[0.5,0,0]];labelBackgroundColor=none;rounded=0;html=1;whiteSpace=wrap;" parent="1" vertex="1">
            <mxGeometry x="2942" y="627" width="128" height="38" as="geometry" />
          </mxCell>
        </UserObject>
        <mxCell id="67" value="&lt;div style=&quot;font-size: 1px&quot;&gt;&lt;font style=&quot;font-size:16.93px;font-family:SimSun;color:#000000;direction:ltr;letter-spacing:0px;line-height:120%;opacity:1&quot;&gt;赋值属性&lt;br/&gt;&lt;/font&gt;&lt;/div&gt;" style="text;vsdxID=200;fillColor=none;gradientColor=none;strokeColor=none;spacingTop=-1;spacingBottom=-1;spacingLeft=-1;spacingRight=-1;points=[[1,0.5,0],[0.5,0.5,0],[0.5,0,0]];labelBackgroundColor=none;rounded=0;html=1;whiteSpace=wrap;verticalAlign=middle;align=center;overflow=width;;html=1;" parent="66" vertex="1">
          <mxGeometry x="21.33" width="85.33" height="38" as="geometry" />
        </mxCell>
        <UserObject label="" tags="背景" id="68">
          <mxCell style="vsdxID=256;fillColor=none;gradientColor=none;points=[];labelBackgroundColor=none;rounded=0;strokeColor=none;html=1;whiteSpace=wrap;" parent="1" vertex="1">
            <mxGeometry x="686" y="365" width="812" height="81" as="geometry" />
          </mxCell>
        </UserObject>
        <mxCell id="69" style="vsdxID=210;fillColor=none;gradientColor=none;shape=stencil(nZBLDoAgDERP0z3SIyjew0SURgSD+Lu9kMZoXLhwN9O+tukAlrNpJg1SzDH4QW/URgNYgZTkjA4UkwJUgGXng+6DX1zLfmoymdXo17xh5zmRJ6Q42BWCfc2oJfdAr+Yv+AP9Cb7OJ3H/2JG1HNGz/84klThPVCc=);dashed=1;strokeColor=#000000;points=[];labelBackgroundColor=none;rounded=0;html=1;whiteSpace=wrap;" parent="68" vertex="1">
          <mxGeometry width="812" height="81" as="geometry" />
        </mxCell>
        <mxCell id="70" value="&lt;div style=&quot;font-size: 1px&quot;&gt;&lt;p style=&quot;text-align:center;margin-left:0;margin-right:0;margin-top:0px;margin-bottom:0px;text-indent:0;vertical-align:middle;direction:ltr;&quot;&gt;&lt;font style=&quot;font-size:16.93px;font-family:SimSun;color:#000000;direction:ltr;letter-spacing:0px;line-height:120%;opacity:1&quot;&gt;叠加DEM&lt;/font&gt;&lt;font style=&quot;font-size:11.29px;font-family:Themed;color:#000000;direction:ltr;letter-spacing:0px;line-height:120%;opacity:1&quot;&gt;&lt;br/&gt;&lt;/font&gt;&lt;/p&gt;&lt;/div&gt;" style="verticalAlign=middle;align=center;overflow=width;vsdxID=213;fillColor=#FFFFFF;gradientColor=none;shape=stencil(rVJBEoIwDHxNjzClnXbGM+I/OlKgY6VMqAK/txjRKnLSW7LZZLNtCM/7RnWaMNp7cCc9mNI3hO8JY6ZtNBgfIsILwvPKga7BXdoS807NzDk6u+s8YcQ+mQoxNzE6IUDv2QG51rQRN6N0m6rgGCrwoAqRyh2SYVq6ZcokYhsDn/mYqNH0CTivvHFtLEetglonQS6prKrfSv2gdbeCv3pZ+V60f7Cz8Zb/cpPF+4Xg9aWVsRYvIq5/nkCA8Hx4cQM=);strokeColor=#000000;spacingTop=-1;spacingBottom=-1;spacingLeft=-1;spacingRight=-1;points=[[0,0.5,0],[0.5,0,0],[0.5,1,0],[0.93,0.5,0]];labelBackgroundColor=none;rounded=0;html=1;whiteSpace=wrap;" parent="68" vertex="1">
          <mxGeometry x="14" y="11" width="114" height="60" as="geometry" />
        </mxCell>
        <mxCell id="71" value="&lt;div style=&quot;font-size: 1px&quot;&gt;&lt;font style=&quot;font-size:14.11px;font-family:SimSun;color:#000000;direction:ltr;letter-spacing:0px;line-height:120%;opacity:1&quot;&gt;沿沟谷按照解译标志进行判识&lt;br/&gt;&lt;/font&gt;&lt;/div&gt;" style="verticalAlign=middle;align=center;overflow=width;vsdxID=215;fillColor=#FFFFFF;gradientColor=none;shape=stencil(rVJREoIgED0NnzQIZQcwuweTqEwEzkKptw9iNMz8aKa/3bdv9+2DRaywLe8EosQ6MFfRy8q1iJ0QpVK3AqTzEWIlYkVtQDRg7rqKeccDM0Q38wgThti33x1ZaKJkjAB5ZefIVVIn3IyQbSqHi6/ANJbs6CGSYZy68xnbGDjnA+aDtBiM404ancoRxaER2MvhWvFmUbK9EN0K/upl5XvS/slOvrCz8Zb/cpOl+/ng/aW1VCpeRFr/PAEPxfNh5RM=);strokeColor=#000000;spacingTop=-1;spacingBottom=-1;spacingLeft=-1;spacingRight=-1;points=[[0,0.5,0],[0.5,0,0],[0.5,1,0],[0.93,0.5,0]];labelBackgroundColor=none;rounded=0;html=1;whiteSpace=wrap;" parent="68" vertex="1">
          <mxGeometry x="351" y="11" width="158" height="60" as="geometry" />
        </mxCell>
        <mxCell id="72" value="&lt;div style=&quot;font-size: 1px&quot;&gt;&lt;p style=&quot;text-align:center;margin-left:0;margin-right:0;margin-top:0px;margin-bottom:0px;text-indent:0;vertical-align:middle;direction:ltr;&quot;&gt;&lt;font style=&quot;font-size:16.93px;font-family:SimSun;color:#000000;direction:ltr;letter-spacing:0px;line-height:120%;opacity:1&quot;&gt;叠加历史隐患&lt;/font&gt;&lt;font style=&quot;font-size:16.93px;font-family:Themed;color:#000000;direction:ltr;letter-spacing:0px;line-height:120%;opacity:1&quot;&gt;点&lt;br/&gt;&lt;/font&gt;&lt;/p&gt;&lt;/div&gt;" style="verticalAlign=middle;align=center;overflow=width;vsdxID=216;fillColor=#FFFFFF;gradientColor=none;shape=stencil(rVLREoIgEPwaHnUQ0no3+w8mUZlInINS/z6INEx96+1ub+/2Fg7RXDes44hgbUDdeC9K0yB6RoSItuEgjI0QLRDNKwW8BvVoS593zDFddFdPN2HwfWmMj66J4NED+J1dPFeKNuAmGO9TGVxtBT7UA53nwjh1ZzFJPbYzcM6HiA1CR6AMM0K1oRyWDGoeWbmokqxelHTPebeCN72sfE/au3ZOG3ayhZ2dt/yXmyTczwbfL62ElP4iwvrvCVjInw8tXg==);strokeColor=#000000;spacingTop=-1;spacingBottom=-1;spacingLeft=-1;spacingRight=-1;points=[[0,0.5,0],[0.5,0,0],[0.5,1,0],[0.93,0.5,0]];labelBackgroundColor=none;rounded=0;html=1;whiteSpace=wrap;" parent="68" vertex="1">
          <mxGeometry x="166" y="11" width="148" height="60" as="geometry" />
        </mxCell>
        <mxCell id="73" value="&lt;div style=&quot;font-size: 1px&quot;&gt;&lt;font style=&quot;font-size:14.11px;font-family:SimSun;color:#000000;direction:ltr;letter-spacing:0px;line-height:120%;opacity:1&quot;&gt;圈定形变靶区&lt;br/&gt;&lt;/font&gt;&lt;/div&gt;" style="verticalAlign=middle;align=center;overflow=width;vsdxID=218;fillColor=#FFFFFF;gradientColor=none;shape=stencil(rVLREoIgEPwaHnEQ0rFns/9gEpWJxDko9e+DyNLUt97u9vZub+EQy03DO4EoMRb0VfSytA1iJ0SpbBsB0roIsQKxvNIgatD3tgx5xz3TRzf98BOG0JdEWeqbKBkDQF7ZOXCVbGfcmJB9KoeLq8CbejhGWeDCODWnEU0CtjPvkw+YD9Jg0JZbqdu5GlEcaoGdGq4Urxcl0wvRreBNKyvbk/aum3jDTrqws/OU/3ITz/dzwfdHK6lUOIh5/fcCHBSuhxVP);strokeColor=#000000;spacingTop=-1;spacingBottom=-1;spacingLeft=-1;spacingRight=-1;points=[[0,0.5,0],[0.5,0,0],[0.5,1,0],[0.93,0.5,0]];labelBackgroundColor=none;rounded=0;html=1;whiteSpace=wrap;" parent="68" vertex="1">
          <mxGeometry x="548" y="11" width="128" height="60" as="geometry" />
        </mxCell>
        <mxCell id="74" value="&lt;div style=&quot;font-size: 1px&quot;&gt;&lt;p style=&quot;text-align:center;margin-left:0;margin-right:0;margin-top:0px;margin-bottom:0px;text-indent:0;vertical-align:middle;direction:ltr;&quot;&gt;&lt;font style=&quot;font-size:16.93px;font-family:SimSun;color:#000000;direction:ltr;letter-spacing:0px;line-height:120%;opacity:1&quot;&gt;&lt;b&gt;目视解译&lt;br/&gt;&lt;/b&gt;&lt;/font&gt;&lt;font style=&quot;font-size:16.93px;font-family:Themed;color:#000000;direction:ltr;letter-spacing:0px;line-height:120%;opacity:1&quot;&gt;（约&lt;/font&gt;&lt;font style=&quot;font-size:16.93px;font-family:Themed;color:#ff0000;direction:ltr;letter-spacing:0px;line-height:120%;opacity:1&quot;&gt;&lt;b&gt;0.5&lt;/b&gt;&lt;/font&gt;&lt;font style=&quot;font-size:16.93px;font-family:Themed;color:#ff0000;direction:ltr;letter-spacing:0px;line-height:120%;opacity:1&quot;&gt;&lt;b&gt;h&lt;/b&gt;&lt;/font&gt;&lt;font style=&quot;font-size:16.93px;font-family:Themed;color:#ff0000;direction:ltr;letter-spacing:0px;line-height:120%;opacity:1&quot;&gt;&lt;b&gt;/km&lt;/b&gt;&lt;/font&gt;&lt;font style=&quot;font-size:16.93px;font-family:Themed;color:#ff0000;direction:ltr;letter-spacing:0px;line-height:120%;opacity:1&quot;&gt;&lt;b&gt;&lt;sup&gt;2&lt;/sup&gt;&lt;/b&gt;&lt;/font&gt;&lt;font style=&quot;font-size:16.93px;font-family:Themed;color:#000000;direction:ltr;letter-spacing:0px;line-height:120%;opacity:1&quot;&gt;）&lt;/font&gt;&lt;font style=&quot;font-size:11.29px;font-family:Themed;color:#000000;direction:ltr;letter-spacing:0px;line-height:120%;opacity:1&quot;&gt;&lt;br/&gt;&lt;/font&gt;&lt;/p&gt;&lt;/div&gt;" style="verticalAlign=middle;align=center;overflow=width;vsdxID=219;fillColor=#FFFFFF;gradientColor=none;shape=stencil(tVLREoIgEPwaHnEQxsl3s/9gEpSJwDko7e+DsEkze2l627vdu5uFRaxyHe8FosR5sCcxqMZ3iO0Rpcp0ApQPCLEasUpaEC3Yi2lS3fOojOhsr3HDmObyMtsVcYqS29Qh5FEfklwrM5OXeUa/yjkcAwfr7TDpiyTfXvjkMR+Vw2A998qaBac5tAKHU1hq3i4oNwjRr9ofvayt/+Rk+yX/4iWA159KpXWKxJx/z0Bopfyw+g4=);strokeColor=#000000;spacingTop=-1;spacingBottom=-1;spacingLeft=-1;spacingRight=-1;points=[[0.5,0,0],[0.5,0.5,0],[1,0.5,0]];labelBackgroundColor=none;rounded=0;html=1;whiteSpace=wrap;" parent="68" vertex="1">
          <mxGeometry x="678" y="13" width="128" height="48" as="geometry" />
        </mxCell>
        <UserObject label="" tags="背景" id="75">
          <mxCell style="vsdxID=257;fillColor=none;gradientColor=none;points=[];labelBackgroundColor=none;rounded=0;strokeColor=none;html=1;whiteSpace=wrap;" parent="1" vertex="1">
            <mxGeometry x="686" y="248" width="812" height="81" as="geometry" />
          </mxCell>
        </UserObject>
        <mxCell id="76" style="vsdxID=202;fillColor=#FFFFFF;gradientColor=none;shape=stencil(UzV2Ls5ILEhVNTIoLinKz04tz0wpyVA1dlE1MsrMy0gtyiwBslSNXVWNndPyi1LTi/JL81Ig/IJEkEoQKze/DGRCBUSfrhlIi5FBJYRraGAA5rtB1OZk5iGptTQhXq2hAarBeJQSrRC/W4EMhCfTMnNyIGGELI8eKEAhSIAauwIA);strokeColor=#000000;spacingTop=-1;spacingBottom=-1;spacingLeft=-1;spacingRight=-1;points=[[1,0.5,0],[0.5,0.5,0],[0.5,0,0]];labelBackgroundColor=none;rounded=0;html=1;whiteSpace=wrap;" parent="75" vertex="1">
          <mxGeometry x="23" y="20" width="158" height="38" as="geometry" />
        </mxCell>
        <mxCell id="77" value="&lt;div style=&quot;font-size: 1px&quot;&gt;&lt;p style=&quot;text-align:center;margin-left:0;margin-right:0;margin-top:0px;margin-bottom:0px;text-indent:0;vertical-align:middle;direction:ltr;&quot;&gt;&lt;font style=&quot;font-size:16.93px;font-family:SimSun;color:#000000;direction:ltr;letter-spacing:0px;line-height:120%;opacity:1&quot;&gt;正射&lt;/font&gt;&lt;font style=&quot;font-size:16.93px;font-family:Themed;color:#000000;direction:ltr;letter-spacing:0px;line-height:120%;opacity:1&quot;&gt;校正&lt;/font&gt;&lt;font style=&quot;font-size:11.29px;font-family:Themed;color:#000000;direction:ltr;letter-spacing:0px;line-height:120%;opacity:1&quot;&gt;&lt;br/&gt;&lt;/font&gt;&lt;/p&gt;&lt;/div&gt;" style="text;vsdxID=202;fillColor=none;gradientColor=none;strokeColor=none;spacingTop=-1;spacingBottom=-1;spacingLeft=-1;spacingRight=-1;points=[[1,0.5,0],[0.5,0.5,0],[0.5,0,0]];labelBackgroundColor=none;rounded=0;html=1;whiteSpace=wrap;verticalAlign=middle;align=center;overflow=width;;html=1;" parent="76" vertex="1">
          <mxGeometry x="26.4" width="105.6" height="38" as="geometry" />
        </mxCell>
        <mxCell id="78" style="vsdxID=203;fillColor=#FFFFFF;gradientColor=none;shape=stencil(UzV2Ls5ILEhVNTIoLinKz04tz0wpyVA1dlE1MsrMy0gtyiwBslSNXVWNndPyi1LTi/JL81Ig/IJEkEoQKze/DGRCBUSfroWeMUiTkUElRMDQwADMd4OozsnMQ1JtaahnTrxqQwN0w/EoJkEpITcDGQjvpmXm5EBCC1kePXiAQpCgNXYFAA==);strokeColor=#000000;spacingTop=-1;spacingBottom=-1;spacingLeft=-1;spacingRight=-1;points=[[1,0.5,0],[0.5,0.5,0],[0.5,0,0]];labelBackgroundColor=none;rounded=0;html=1;whiteSpace=wrap;" parent="75" vertex="1">
          <mxGeometry x="208" y="20" width="114" height="38" as="geometry" />
        </mxCell>
        <mxCell id="79" value="&lt;div style=&quot;font-size: 1px&quot;&gt;&lt;p style=&quot;text-align:center;margin-left:0;margin-right:0;margin-top:0px;margin-bottom:0px;text-indent:0;vertical-align:middle;direction:ltr;&quot;&gt;&lt;font style=&quot;font-size:16.93px;font-family:SimSun;color:#000000;direction:ltr;letter-spacing:0px;line-height:120%;opacity:1&quot;&gt;数据&lt;/font&gt;&lt;font style=&quot;font-size:16.93px;font-family:Themed;color:#000000;direction:ltr;letter-spacing:0px;line-height:120%;opacity:1&quot;&gt;融合&lt;/font&gt;&lt;font style=&quot;font-size:11.29px;font-family:Themed;color:#000000;direction:ltr;letter-spacing:0px;line-height:120%;opacity:1&quot;&gt;&lt;br/&gt;&lt;/font&gt;&lt;/p&gt;&lt;/div&gt;" style="text;vsdxID=203;fillColor=none;gradientColor=none;strokeColor=none;spacingTop=-1;spacingBottom=-1;spacingLeft=-1;spacingRight=-1;points=[[1,0.5,0],[0.5,0.5,0],[0.5,0,0]];labelBackgroundColor=none;rounded=0;html=1;whiteSpace=wrap;verticalAlign=middle;align=center;overflow=width;;html=1;" parent="78" vertex="1">
          <mxGeometry x="19.08" width="76.33" height="38" as="geometry" />
        </mxCell>
        <mxCell id="80" style="vsdxID=204;fillColor=#FFFFFF;gradientColor=none;shape=stencil(UzV2Ls5ILEhVNTIoLinKz04tz0wpyVA1dlE1MsrMy0gtyiwBslSNXVWNndPyi1LTi/JL81Ig/IJEkEoQKze/DGRCBUSfrpmeiRFIl5FBJUTE0MAAzHeDKM/JzENSbmmsZ2pBvHJDAwzj8agmRS1BdwMZCD+nZebkQIIMWR49jIBCkPA1dgUA);strokeColor=#000000;spacingTop=-1;spacingBottom=-1;spacingLeft=-1;spacingRight=-1;points=[[1,0.5,0],[0.5,0.5,0],[0.5,0,0]];labelBackgroundColor=none;rounded=0;html=1;whiteSpace=wrap;" parent="75" vertex="1">
          <mxGeometry x="349" y="20" width="148" height="38" as="geometry" />
        </mxCell>
        <mxCell id="81" value="&lt;div style=&quot;font-size: 1px&quot;&gt;&lt;p style=&quot;text-align:center;margin-left:0;margin-right:0;margin-top:0px;margin-bottom:0px;text-indent:0;vertical-align:middle;direction:ltr;&quot;&gt;&lt;font style=&quot;font-size:16.93px;font-family:SimSun;color:#000000;direction:ltr;letter-spacing:0px;line-height:120%;opacity:1&quot;&gt;影像镶嵌&lt;/font&gt;&lt;font style=&quot;font-size:11.29px;font-family:Themed;color:#000000;direction:ltr;letter-spacing:0px;line-height:120%;opacity:1&quot;&gt;&lt;br/&gt;&lt;/font&gt;&lt;/p&gt;&lt;/div&gt;" style="text;vsdxID=204;fillColor=none;gradientColor=none;strokeColor=none;spacingTop=-1;spacingBottom=-1;spacingLeft=-1;spacingRight=-1;points=[[1,0.5,0],[0.5,0.5,0],[0.5,0,0]];labelBackgroundColor=none;rounded=0;html=1;whiteSpace=wrap;verticalAlign=middle;align=center;overflow=width;;html=1;" parent="80" vertex="1">
          <mxGeometry x="24.67" width="98.67" height="38" as="geometry" />
        </mxCell>
        <mxCell id="82" style="vsdxID=205;fillColor=#FFFFFF;gradientColor=none;shape=stencil(UzV2Ls5ILEhVNTIoLinKz04tz0wpyVA1dlE1MsrMy0gtyiwBslSNXVWNndPyi1LTi/JL81Ig/IJEkEoQKze/DGRCBUSfrpmeiRFIl5FBJUTE0MAAzHeDKM/JzENSbmmsZ2pBvHJDAwzj8agmRS1BdwMZCD+nZebkQIIMWR49jIBCkPA1dgUA);strokeColor=#000000;spacingTop=-1;spacingBottom=-1;spacingLeft=-1;spacingRight=-1;points=[[1,0.5,0],[0.5,0.5,0],[0.5,0,0]];labelBackgroundColor=none;rounded=0;html=1;whiteSpace=wrap;" parent="75" vertex="1">
          <mxGeometry x="524" y="20" width="148" height="38" as="geometry" />
        </mxCell>
        <mxCell id="83" value="&lt;div style=&quot;font-size: 1px&quot;&gt;&lt;p style=&quot;text-align:center;margin-left:0;margin-right:0;margin-top:0px;margin-bottom:0px;text-indent:0;vertical-align:middle;direction:ltr;&quot;&gt;&lt;font style=&quot;font-size:16.93px;font-family:SimSun;color:#000000;direction:ltr;letter-spacing:0px;line-height:120%;opacity:1&quot;&gt;影像&lt;/font&gt;&lt;font style=&quot;font-size:16.93px;font-family:Themed;color:#000000;direction:ltr;letter-spacing:0px;line-height:120%;opacity:1&quot;&gt;裁剪&lt;/font&gt;&lt;font style=&quot;font-size:11.29px;font-family:Themed;color:#000000;direction:ltr;letter-spacing:0px;line-height:120%;opacity:1&quot;&gt;&lt;br/&gt;&lt;/font&gt;&lt;/p&gt;&lt;/div&gt;" style="text;vsdxID=205;fillColor=none;gradientColor=none;strokeColor=none;spacingTop=-1;spacingBottom=-1;spacingLeft=-1;spacingRight=-1;points=[[1,0.5,0],[0.5,0.5,0],[0.5,0,0]];labelBackgroundColor=none;rounded=0;html=1;whiteSpace=wrap;verticalAlign=middle;align=center;overflow=width;;html=1;" parent="82" vertex="1">
          <mxGeometry x="24.67" width="98.67" height="38" as="geometry" />
        </mxCell>
        <mxCell id="84" value="&lt;div style=&quot;font-size: 1px&quot;&gt;&lt;p style=&quot;text-align:center;margin-left:0;margin-right:0;margin-top:0px;margin-bottom:0px;text-indent:0;vertical-align:middle;direction:ltr;&quot;&gt;&lt;font style=&quot;font-size:16.93px;font-family:SimSun;color:#000000;direction:ltr;letter-spacing:0px;line-height:120%;opacity:1&quot;&gt;&lt;b&gt;预处理&lt;br/&gt;&lt;/b&gt;&lt;/font&gt;&lt;font style=&quot;font-size:16.93px;font-family:Themed;color:#000000;direction:ltr;letter-spacing:0px;line-height:120%;opacity:1&quot;&gt;（约&lt;/font&gt;&lt;font style=&quot;font-size:16.93px;font-family:Themed;color:#ff0000;direction:ltr;letter-spacing:0px;line-height:120%;opacity:1&quot;&gt;&lt;b&gt;1&lt;/b&gt;&lt;/font&gt;&lt;font style=&quot;font-size:16.93px;font-family:Themed;color:#ff0000;direction:ltr;letter-spacing:0px;line-height:120%;opacity:1&quot;&gt;&lt;b&gt;2&lt;/b&gt;&lt;/font&gt;&lt;font style=&quot;font-size:16.93px;font-family:Themed;color:#ff0000;direction:ltr;letter-spacing:0px;line-height:120%;opacity:1&quot;&gt;&lt;b&gt;h&lt;/b&gt;&lt;/font&gt;&lt;font style=&quot;font-size:16.93px;font-family:Themed;color:#ff0000;direction:ltr;letter-spacing:0px;line-height:120%;opacity:1&quot;&gt;&lt;b&gt;/景&lt;/b&gt;&lt;/font&gt;&lt;font style=&quot;font-size:16.93px;font-family:Themed;color:#000000;direction:ltr;letter-spacing:0px;line-height:120%;opacity:1&quot;&gt;）&lt;/font&gt;&lt;font style=&quot;font-size:11.29px;font-family:Themed;color:#000000;direction:ltr;letter-spacing:0px;line-height:120%;opacity:1&quot;&gt;&lt;br/&gt;&lt;/font&gt;&lt;/p&gt;&lt;/div&gt;" style="verticalAlign=middle;align=center;overflow=width;vsdxID=206;fillColor=#FFFFFF;gradientColor=none;shape=stencil(tVLLDsIgEPwajhgEH+m51v8glrYbEZoFbf17QTS21nox3mZ3ZnczMETkrpGtIpw5j/aoOih9Q8SOcA6mUQg+ICIKIvLKoqrRnk2Z6lZGZUQne4kb+jTH2SLbxCnOrqmzZOxe75NcgxnIt9mCrb7JJR4Ch9Pt+NCvk3x+4ZOnsgdH0XrpwZoRpyXWioZTtNKyHlGuU6qdtD96mVr/ycn8S/7FSwCvP61A6xSJIf+egdBK+RHFDQ==);strokeColor=#000000;spacingTop=-1;spacingBottom=-1;spacingLeft=-1;spacingRight=-1;points=[[0.5,0,0],[0.5,0.5,0],[1,0.5,0]];labelBackgroundColor=none;rounded=0;html=1;whiteSpace=wrap;" parent="75" vertex="1">
          <mxGeometry x="692" y="20" width="114" height="48" as="geometry" />
        </mxCell>
        <mxCell id="85" style="vsdxID=207;fillColor=none;gradientColor=none;shape=stencil(nZBLDoAgDERP0z3SIyjew0SURgSD+Lu9kMZoXLhwN9O+tukAlrNpJg1SzDH4QW/URgNYgZTkjA4UkwJUgGXng+6DX1zLfmoymdXo17xh5zmRJ6Q42BWCfc2oJfdAr+Yv+AP9Cb7OJ3H/2JG1HNGz/84klThPVCc=);dashed=1;strokeColor=#000000;points=[];labelBackgroundColor=none;rounded=0;html=1;whiteSpace=wrap;" parent="75" vertex="1">
          <mxGeometry width="812" height="81" as="geometry" />
        </mxCell>
        <UserObject label="" tags="背景" id="86">
          <mxCell style="vsdxID=258;fillColor=none;gradientColor=none;points=[];labelBackgroundColor=none;rounded=0;strokeColor=none;html=1;whiteSpace=wrap;" parent="1" vertex="1">
            <mxGeometry x="686" y="599" width="812" height="81" as="geometry" />
          </mxCell>
        </UserObject>
        <mxCell id="87" style="vsdxID=233;fillColor=none;gradientColor=none;shape=stencil(nZBLDoAgDERP0z3SIyjew0SURgSD+Lu9kMZoXLhwN9O+tukAlrNpJg1SzDH4QW/URgNYgZTkjA4UkwJUgGXng+6DX1zLfmoymdXo17xh5zmRJ6Q42BWCfc2oJfdAr+Yv+AP9Cb7OJ3H/2JG1HNGz/84klThPVCc=);dashed=1;strokeColor=#000000;points=[];labelBackgroundColor=none;rounded=0;html=1;whiteSpace=wrap;" parent="86" vertex="1">
          <mxGeometry width="812" height="81" as="geometry" />
        </mxCell>
        <mxCell id="88" value="&lt;div style=&quot;font-size: 1px&quot;&gt;&lt;p style=&quot;text-align:center;margin-left:0;margin-right:0;margin-top:0px;margin-bottom:0px;text-indent:0;vertical-align:middle;direction:ltr;&quot;&gt;&lt;font style=&quot;font-size:16.93px;font-family:SimSun;color:#000000;direction:ltr;letter-spacing:0px;line-height:120%;opacity:1&quot;&gt;&lt;b&gt;制图&lt;br/&gt;&lt;/b&gt;&lt;/font&gt;&lt;font style=&quot;font-size:16.93px;font-family:Themed;color:#000000;direction:ltr;letter-spacing:0px;line-height:120%;opacity:1&quot;&gt;（约&lt;/font&gt;&lt;font style=&quot;font-size:16.93px;font-family:Themed;color:#ff0000;direction:ltr;letter-spacing:0px;line-height:120%;opacity:1&quot;&gt;&lt;b&gt;4&lt;/b&gt;&lt;/font&gt;&lt;font style=&quot;font-size:16.93px;font-family:Themed;color:#ff0000;direction:ltr;letter-spacing:0px;line-height:120%;opacity:1&quot;&gt;&lt;b&gt;h&lt;/b&gt;&lt;/font&gt;&lt;font style=&quot;font-size:16.93px;font-family:Themed;color:#ff0000;direction:ltr;letter-spacing:0px;line-height:120%;opacity:1&quot;&gt;&lt;b&gt;/幅&lt;/b&gt;&lt;/font&gt;&lt;font style=&quot;font-size:16.93px;font-family:Themed;color:#000000;direction:ltr;letter-spacing:0px;line-height:120%;opacity:1&quot;&gt;）&lt;/font&gt;&lt;font style=&quot;font-size:11.29px;font-family:Themed;color:#000000;direction:ltr;letter-spacing:0px;line-height:120%;opacity:1&quot;&gt;&lt;br/&gt;&lt;/font&gt;&lt;/p&gt;&lt;/div&gt;" style="verticalAlign=middle;align=center;overflow=width;vsdxID=234;fillColor=#FFFFFF;gradientColor=none;shape=stencil(tVLLDsIgEPwajhgEH+m51v8glrYbEZoFbf17QTS21nox3mZ3ZnczMETkrpGtIpw5j/aoOih9Q8SOcA6mUQg+ICIKIvLKoqrRnk2Z6lZGZUQne4kb+jTH2SLbxCnOrqmzZOxe75NcgxnIt9mCrb7JJR4Ch9Pt+NCvk3x+4ZOnsgdH0XrpwZoRpyXWioZTtNKyHlGuU6qdtD96mVr/ycn8S/7FSwCvP61A6xSJIf+egdBK+RHFDQ==);strokeColor=#000000;spacingTop=-1;spacingBottom=-1;spacingLeft=-1;spacingRight=-1;points=[[0.5,0,0],[0.5,0.5,0],[1,0.5,0]];labelBackgroundColor=none;rounded=0;html=1;whiteSpace=wrap;" parent="86" vertex="1">
          <mxGeometry x="687" y="13" width="114" height="48" as="geometry" />
        </mxCell>
        <mxCell id="89" style="vsdxID=238;fillColor=#FFFFFF;gradientColor=none;shape=stencil(UzV2Ls5ILEhVNTIoLinKz04tz0wpyVA1dlE1MsrMy0gtyiwBslSNXVWNndPyi1LTi/JL81Ig/IJEkEoQKze/DGRCBUSfrqmemSlIl5FBJUTE0MAAzHeDKM/JzENSbmmiZ0yCckMDDOPxqCZFLUF3AxkIP6dl5uRAggxZHj2MgEKQ8DV2BQA=);strokeColor=#000000;spacingTop=-1;spacingBottom=-1;spacingLeft=-1;spacingRight=-1;points=[[1,0.5,0],[0.5,0.5,0],[0.5,0,0]];labelBackgroundColor=none;rounded=0;html=1;whiteSpace=wrap;" parent="86" vertex="1">
          <mxGeometry x="156" y="18" width="168" height="38" as="geometry" />
        </mxCell>
        <mxCell id="90" value="&lt;div style=&quot;font-size: 1px&quot;&gt;&lt;font style=&quot;font-size:16.93px;font-family:SimSun;color:#000000;direction:ltr;letter-spacing:0px;line-height:120%;opacity:1&quot;&gt;叠加地理要素&lt;br/&gt;&lt;/font&gt;&lt;/div&gt;" style="text;vsdxID=238;fillColor=none;gradientColor=none;strokeColor=none;spacingTop=-1;spacingBottom=-1;spacingLeft=-1;spacingRight=-1;points=[[1,0.5,0],[0.5,0.5,0],[0.5,0,0]];labelBackgroundColor=none;rounded=0;html=1;whiteSpace=wrap;verticalAlign=middle;align=center;overflow=width;;html=1;" parent="89" vertex="1">
          <mxGeometry x="28" width="112" height="38" as="geometry" />
        </mxCell>
        <mxCell id="91" style="vsdxID=239;fillColor=#FFFFFF;gradientColor=none;shape=stencil(UzV2Ls5ILEhVNTIoLinKz04tz0wpyVA1dlE1MsrMy0gtyiwBslSNXVWNndPyi1LTi/JL81Ig/IJEkEoQKze/DGRCBUSfrhlIi5FBJYRraGAA5rtB1OZk5iGptTQhXq2hAarBeJQSrRC/W4EMhCfTMnNyIGGELI8eKEAhSIAauwIA);strokeColor=#000000;spacingTop=-1;spacingBottom=-1;spacingLeft=-1;spacingRight=-1;points=[[1,0.5,0],[0.5,0.5,0],[0.5,0,0]];labelBackgroundColor=none;rounded=0;html=1;whiteSpace=wrap;" parent="86" vertex="1">
          <mxGeometry x="432" y="18" width="158" height="38" as="geometry" />
        </mxCell>
        <mxCell id="92" value="&lt;div style=&quot;font-size: 1px&quot;&gt;&lt;p style=&quot;text-align:center;margin-left:0;margin-right:0;margin-top:0px;margin-bottom:0px;text-indent:0;vertical-align:middle;direction:ltr;&quot;&gt;&lt;font style=&quot;font-size:16.93px;font-family:SimSun;color:#000000;direction:ltr;letter-spacing:0px;line-height:120%;opacity:1&quot;&gt;按&lt;/font&gt;&lt;font style=&quot;font-size:16.93px;font-family:Themed;color:#000000;direction:ltr;letter-spacing:0px;line-height:120%;opacity:1&quot;&gt;县域&lt;/font&gt;&lt;font style=&quot;font-size:16.93px;font-family:Themed;color:#000000;direction:ltr;letter-spacing:0px;line-height:120%;opacity:1&quot;&gt;制图&lt;br/&gt;&lt;/font&gt;&lt;/p&gt;&lt;/div&gt;" style="text;vsdxID=239;fillColor=none;gradientColor=none;strokeColor=none;spacingTop=-1;spacingBottom=-1;spacingLeft=-1;spacingRight=-1;points=[[1,0.5,0],[0.5,0.5,0],[0.5,0,0]];labelBackgroundColor=none;rounded=0;html=1;whiteSpace=wrap;verticalAlign=middle;align=center;overflow=width;;html=1;" parent="91" vertex="1">
          <mxGeometry x="26.4" width="105.6" height="38" as="geometry" />
        </mxCell>
        <UserObject label="" tags="背景" id="93">
          <mxCell style="vsdxID=259;fillColor=none;gradientColor=none;points=[];labelBackgroundColor=none;rounded=0;strokeColor=none;html=1;whiteSpace=wrap;" parent="1" vertex="1">
            <mxGeometry x="686" y="482" width="812" height="81" as="geometry" />
          </mxCell>
        </UserObject>
        <mxCell id="94" style="vsdxID=223;fillColor=none;gradientColor=none;shape=stencil(nZBLDoAgDERP0z3SIyjew0SURgSD+Lu9kMZoXLhwN9O+tukAlrNpJg1SzDH4QW/URgNYgZTkjA4UkwJUgGXng+6DX1zLfmoymdXo17xh5zmRJ6Q42BWCfc2oJfdAr+Yv+AP9Cb7OJ3H/2JG1HNGz/84klThPVCc=);dashed=1;strokeColor=#000000;points=[];labelBackgroundColor=none;rounded=0;html=1;whiteSpace=wrap;" parent="93" vertex="1">
          <mxGeometry width="812" height="81" as="geometry" />
        </mxCell>
        <mxCell id="95" value="&lt;div style=&quot;font-size: 1px&quot;&gt;&lt;p style=&quot;text-align:center;margin-left:0;margin-right:0;margin-top:0px;margin-bottom:0px;text-indent:0;vertical-align:middle;direction:ltr;&quot;&gt;&lt;font style=&quot;font-size:16.93px;font-family:SimSun;color:#000000;direction:ltr;letter-spacing:0px;line-height:120%;opacity:1&quot;&gt;&lt;b&gt;整理&lt;br/&gt;&lt;/b&gt;&lt;/font&gt;&lt;font style=&quot;font-size:16.93px;font-family:Themed;color:#000000;direction:ltr;letter-spacing:0px;line-height:120%;opacity:1&quot;&gt;（约&lt;/font&gt;&lt;font style=&quot;font-size:16.93px;font-family:Themed;color:#ff0000;direction:ltr;letter-spacing:0px;line-height:120%;opacity:1&quot;&gt;&lt;b&gt;1&lt;/b&gt;&lt;/font&gt;&lt;font style=&quot;font-size:16.93px;font-family:Themed;color:#ff0000;direction:ltr;letter-spacing:0px;line-height:120%;opacity:1&quot;&gt;&lt;b&gt;h&lt;/b&gt;&lt;/font&gt;&lt;font style=&quot;font-size:16.93px;font-family:Themed;color:#ff0000;direction:ltr;letter-spacing:0px;line-height:120%;opacity:1&quot;&gt;&lt;b&gt;/点&lt;/b&gt;&lt;/font&gt;&lt;font style=&quot;font-size:16.93px;font-family:Themed;color:#000000;direction:ltr;letter-spacing:0px;line-height:120%;opacity:1&quot;&gt;）&lt;/font&gt;&lt;font style=&quot;font-size:11.29px;font-family:Themed;color:#000000;direction:ltr;letter-spacing:0px;line-height:120%;opacity:1&quot;&gt;&lt;br/&gt;&lt;/font&gt;&lt;/p&gt;&lt;/div&gt;" style="verticalAlign=middle;align=center;overflow=width;vsdxID=228;fillColor=#FFFFFF;gradientColor=none;shape=stencil(tVLLDsIgEPwajhgEH+m51v8glrYbEZoFbf17QTS21nox3mZ3ZnczMETkrpGtIpw5j/aoOih9Q8SOcA6mUQg+ICIKIvLKoqrRnk2Z6lZGZUQne4kb+jTH2SLbxCnOrqmzZOxe75NcgxnIt9mCrb7JJR4Ch9Pt+NCvk3x+4ZOnsgdH0XrpwZoRpyXWioZTtNKyHlGuU6qdtD96mVr/ycn8S/7FSwCvP61A6xSJIf+egdBK+RHFDQ==);strokeColor=#000000;spacingTop=-1;spacingBottom=-1;spacingLeft=-1;spacingRight=-1;points=[[0.5,0,0],[0.5,0.5,0],[1,0.5,0]];labelBackgroundColor=none;rounded=0;html=1;whiteSpace=wrap;" parent="93" vertex="1">
          <mxGeometry x="692" y="13" width="114" height="48" as="geometry" />
        </mxCell>
        <mxCell id="96" value="&lt;div style=&quot;font-size: 1px&quot;&gt;&lt;font style=&quot;font-size:16.93px;font-family:SimSun;color:#000000;direction:ltr;letter-spacing:0px;line-height:120%;opacity:1&quot;&gt;属性赋值&lt;br/&gt;&lt;/font&gt;&lt;/div&gt;" style="verticalAlign=middle;align=center;overflow=width;vsdxID=229;fillColor=#FFFFFF;gradientColor=none;shape=stencil(1VPBEoIgEP0ajjoIZtPZ6j+YRGUicRZK/fsg1NTi2KHb2923++axC6K5rlnLEcHagLryThSmRvSICBFNzUEYixA9IZqXCngF6t4UPm6ZYzp0Uw83ofd9aYx3rongwSfwKzp7rhTNgptgHKYyuNgKjFSaxmnmyTBM3VlMRq3AwDnuI9YLHYEyzAjVLOWwZFDxyMpFpWTVqqQ7zttFOgl7+fA9aQft7L/YOazsBN7yJ24seK+0FFL6i5jroX3/3Q5x0PXGsQXbo7cp/2Ho6Qk=);strokeColor=#000000;spacingTop=-1;spacingBottom=-1;spacingLeft=-1;spacingRight=-1;points=[[0.5,0,0],[0.5,0,0],[1.04,0.5,0],[1,0.5,0]];labelBackgroundColor=none;rounded=0;html=1;whiteSpace=wrap;" parent="93" vertex="1">
          <mxGeometry x="132" y="15" width="148" height="48" as="geometry" />
        </mxCell>
        <mxCell id="97" value="&lt;div style=&quot;font-size: 1px&quot;&gt;&lt;font style=&quot;font-size:16.93px;font-family:SimSun;color:#000000;direction:ltr;letter-spacing:0px;line-height:120%;opacity:1&quot;&gt;制作解译卡片&lt;br/&gt;&lt;/font&gt;&lt;/div&gt;" style="verticalAlign=middle;align=center;overflow=width;vsdxID=232;fillColor=#FFFFFF;gradientColor=none;shape=stencil(1VPBEoIgEP0ajjoIZtPZ6j+YRGUicRZK/fsg1NTi2KHb2923++axC6K5rlnLEcHagLryThSmRvSICBFNzUEYixA9IZqXCngF6t4UPm6ZYzp0Uw83ofd9aYx3rongwSfwKzp7rhTNgptgHKYyuNgKjFSaxmnmyTBM3VlMRq3AwDnuI9YLHYEyzAjVLOWwZFDxyMpFpWTVqqQ7zttFOgl7+fA9aQft7L/YOazsBN7yJ24seK+0FFL6i5jroX3/3Q5x0PXGsQXbo7cp/2Ho6Qk=);strokeColor=#000000;spacingTop=-1;spacingBottom=-1;spacingLeft=-1;spacingRight=-1;points=[[0.5,0,0],[0.5,0,0],[1.04,0.5,0],[1,0.5,0]];labelBackgroundColor=none;rounded=0;html=1;whiteSpace=wrap;" parent="93" vertex="1">
          <mxGeometry x="438" y="15" width="148" height="48" as="geometry" />
        </mxCell>
        <UserObject label="" tags="连接线" id="125">
          <mxCell style="vsdxID=268;edgeStyle=none;startArrow=none;endArrow=block;startSize=9;endSize=9;spacingTop=0;spacingBottom=0;spacingLeft=0;spacingRight=0;verticalAlign=middle;html=1;labelBackgroundColor=#ffffff;rounded=0;" parent="1" edge="1">
            <mxGeometry relative="1" as="geometry">
              <mxPoint x="10" as="offset" />
              <Array as="points" />
              <mxPoint x="1978" y="103" as="sourcePoint" />
              <mxPoint x="1978" y="127" as="targetPoint" />
            </mxGeometry>
          </mxCell>
        </UserObject>
        <UserObject label="&lt;div style=&quot;font-size: 1px&quot;&gt;&lt;font style=&quot;font-size:16.93px;font-family:SimSun;color:#000000;direction:ltr;letter-spacing:0px;line-height:120%;opacity:1&quot;&gt;Stacking&lt;/font&gt;&lt;font style=&quot;font-size:16.93px;font-family:Themed;color:#000000;direction:ltr;letter-spacing:0px;line-height:120%;opacity:1&quot;&gt;堆叠&lt;/font&gt;&lt;font style=&quot;font-size:11.29px;font-family:Themed;color:#000000;direction:ltr;letter-spacing:0px;line-height:120%;opacity:1&quot;&gt;&lt;br/&gt;&lt;/font&gt;&lt;/div&gt;" tags="流程图" id="98">
          <mxCell style="verticalAlign=middle;align=center;overflow=width;vsdxID=269;fillColor=#FFFFFF;gradientColor=none;shape=stencil(1VPBEoIgEP0ajjgI6djZ6j+YRGUicFZK/fsw0tTi2KHb27dvd+exC2J5W/NGIEpaC+YiOlnYGrEDolTqWoC0DiF2RCwvDYgKzE0XPm74qBzR1dzHDr2vS6IsHYsoGTxBntHJa5XUC21MSFjK4ewy8JLu9lHmtTBMxWlEE88F+s1xj3kvWwzGciuNXk4jikMlsJuGS8WrVarthGgWdBy28mF7mh10E3+xk67sBJ7yJ24ceG+0lEr5g5jzoXX/2wpJ0PTGsAPbk3eU/y7s+AA=);strokeColor=#000000;spacingTop=-1;spacingBottom=-1;spacingLeft=-1;spacingRight=-1;points=[[0,0.5,0],[0.5,0,0],[0.5,1,0],[1.07,0.5,0],[1,0.5,0]];labelBackgroundColor=none;rounded=0;html=1;whiteSpace=wrap;" parent="1" vertex="1">
            <mxGeometry x="1724" y="478" width="128" height="60" as="geometry" />
          </mxCell>
        </UserObject>
        <UserObject label="&lt;div style=&quot;font-size: 1px&quot;&gt;&lt;font style=&quot;font-size:16.93px;font-family:SimSun;color:#000000;direction:ltr;letter-spacing:0px;line-height:120%;opacity:1&quot;&gt;勾画矢量&lt;br/&gt;&lt;/font&gt;&lt;/div&gt;" tags="流程图" id="99">
          <mxCell style="verticalAlign=middle;align=center;overflow=width;vsdxID=278;fillColor=#FFFFFF;gradientColor=none;shape=stencil(1VPBDsIgDP0ajiwMsiWep/4HcWwjIiwF3fb3grg5ZzgZD95eX1/bPFoQq2zHe4EosQ7MWQyydh1ie0Sp1J0A6TxC7IBY1RgQLZirrmPc86AM6GJuocMY68qsKEIRJVMkyCM6Rq2SeqXNCUlLOZx8Bp7SosjKXRTDNFeXGS0jl2i4xCPmo7QYjONOGr0eRxSHVmA/DjeKt28pOwjRr+g87eXD9zz7CzuJt/yJGw9eK22kUvEilnxq33+3Q5J0vXHswfboPRU/DDvcAQ==);strokeColor=#000000;spacingTop=-1;spacingBottom=-1;spacingLeft=-1;spacingRight=-1;points=[[0,0.5,0],[0.5,0,0],[0.5,1,0],[1.07,0.5,0],[1,0.5,0]];labelBackgroundColor=none;rounded=0;html=1;whiteSpace=wrap;" parent="1" vertex="1">
            <mxGeometry x="1908" y="586" width="114" height="60" as="geometry" />
          </mxCell>
        </UserObject>
        <UserObject label="&lt;div style=&quot;font-size: 1px&quot;&gt;&lt;font style=&quot;font-size:16.93px;font-family:SimSun;color:#000000;direction:ltr;letter-spacing:0px;line-height:120%;opacity:1&quot;&gt;属性赋值&lt;/font&gt;&lt;font style=&quot;font-size:11.29px;font-family:Themed;color:#000000;direction:ltr;letter-spacing:0px;line-height:120%;opacity:1&quot;&gt;&lt;br/&gt;&lt;/font&gt;&lt;/div&gt;" tags="流程图" id="100">
          <mxCell style="verticalAlign=middle;align=center;overflow=width;vsdxID=279;fillColor=#FFFFFF;gradientColor=none;shape=stencil(1VPBDsIgDP0ajiwMsiWep/4HcWwjIiwF3fb3grg5ZzgZD95eX1/bPFoQq2zHe4EosQ7MWQyydh1ie0Sp1J0A6TxC7IBY1RgQLZirrmPc86AM6GJuocMY68qsKEIRJVMkyCM6Rq2SeqXNCUlLOZx8Bp7SosjKXRTDNFeXGS0jl2i4xCPmo7QYjONOGr0eRxSHVmA/DjeKt28pOwjRr+g87eXD9zz7CzuJt/yJGw9eK22kUvEilnxq33+3Q5J0vXHswfboPRU/DDvcAQ==);strokeColor=#000000;spacingTop=-1;spacingBottom=-1;spacingLeft=-1;spacingRight=-1;points=[[0,0.5,0],[0.5,0,0],[0.5,1,0],[1.07,0.5,0],[1,0.5,0]];labelBackgroundColor=none;rounded=0;html=1;whiteSpace=wrap;" parent="1" vertex="1">
            <mxGeometry x="2078" y="586" width="114" height="60" as="geometry" />
          </mxCell>
        </UserObject>
        <UserObject label="&lt;div style=&quot;font-size: 1px&quot;&gt;&lt;p style=&quot;text-align:center;margin-left:0;margin-right:0;margin-top:0px;margin-bottom:0px;text-indent:0;vertical-align:middle;direction:ltr;&quot;&gt;&lt;font style=&quot;font-size:16.93px;font-family:SimSun;color:#000000;direction:ltr;letter-spacing:0px;line-height:120%;opacity:1&quot;&gt;&lt;b&gt;形变靶区圈定&lt;br/&gt;&lt;/b&gt;&lt;/font&gt;&lt;font style=&quot;font-size:16.93px;font-family:Themed;color:#000000;direction:ltr;letter-spacing:0px;line-height:120%;opacity:1&quot;&gt;（约&lt;/font&gt;&lt;font style=&quot;font-size:16.93px;font-family:Themed;color:#ff0000;direction:ltr;letter-spacing:0px;line-height:120%;opacity:1&quot;&gt;&lt;b&gt;0.2&lt;/b&gt;&lt;/font&gt;&lt;font style=&quot;font-size:16.93px;font-family:Themed;color:#ff0000;direction:ltr;letter-spacing:0px;line-height:120%;opacity:1&quot;&gt;&lt;b&gt;h&lt;/b&gt;&lt;/font&gt;&lt;font style=&quot;font-size:16.93px;font-family:Themed;color:#ff0000;direction:ltr;letter-spacing:0px;line-height:120%;opacity:1&quot;&gt;&lt;b&gt;/km&lt;/b&gt;&lt;/font&gt;&lt;font style=&quot;font-size:16.93px;font-family:Themed;color:#ff0000;direction:ltr;letter-spacing:0px;line-height:120%;opacity:1&quot;&gt;&lt;b&gt;&lt;sup&gt;2&lt;/sup&gt;&lt;/b&gt;&lt;/font&gt;&lt;font style=&quot;font-size:16.93px;font-family:Themed;color:#000000;direction:ltr;letter-spacing:0px;line-height:120%;opacity:1&quot;&gt;）&lt;/font&gt;&lt;font style=&quot;font-size:11.29px;font-family:Themed;color:#000000;direction:ltr;letter-spacing:0px;line-height:120%;opacity:1&quot;&gt;&lt;br/&gt;&lt;/font&gt;&lt;/p&gt;&lt;/div&gt;" tags="流程图" id="101">
          <mxCell style="verticalAlign=middle;align=center;overflow=width;vsdxID=280;fillColor=#FFFFFF;gradientColor=none;shape=stencil(tVLREoIgEPwaHnEQxsl3s/9gEpSJwDko7e+DsEkze2l627vdu5uFRaxyHe8FosR5sCcxqMZ3iO0Rpcp0ApQPCLEasUpaEC3Yi2lS3fOojOhsr3HDmObyMtsVcYqS29Qh5FEfklwrM5OXeUa/yjkcAwfr7TDpiyTfXvjkMR+Vw2A998qaBac5tAKHU1hq3i4oNwjRr9ofvayt/+Rk+yX/4iWA159KpXWKxJx/z0Bopfyw+g4=);strokeColor=#000000;spacingTop=-1;spacingBottom=-1;spacingLeft=-1;spacingRight=-1;points=[[0.5,0,0],[0.5,0.5,0],[1,0.5,0]];labelBackgroundColor=none;rounded=0;html=1;whiteSpace=wrap;" parent="1" vertex="1">
            <mxGeometry x="2298" y="592" width="128" height="48" as="geometry" />
          </mxCell>
        </UserObject>
        <UserObject label="" tags="背景" id="102">
          <mxCell style="vsdxID=281;fillColor=none;gradientColor=none;shape=stencil(nZBLDoAgDERP0z3SIyjew0SURgSD+Lu9kMZoXLhwN9O+tukAlrNpJg1SzDH4QW/URgNYgZTkjA4UkwJUgGXng+6DX1zLfmoymdXo17xh5zmRJ6Q42BWCfc2oJfdAr+Yv+AP9Cb7OJ3H/2JG1HNGz/84klThPVCc=);dashed=1;strokeColor=#000000;points=[];labelBackgroundColor=none;rounded=0;html=1;whiteSpace=wrap;" parent="1" vertex="1">
            <mxGeometry x="1606" y="575" width="847" height="81" as="geometry" />
          </mxCell>
        </UserObject>
        <UserObject label="&lt;div style=&quot;font-size: 1px&quot;&gt;&lt;font style=&quot;font-size:16.93px;font-family:SimSun;color:#000000;direction:ltr;letter-spacing:0px;line-height:120%;opacity:1&quot;&gt;叠加DEM&lt;/font&gt;&lt;font style=&quot;font-size:11.29px;font-family:Themed;color:#000000;direction:ltr;letter-spacing:0px;line-height:120%;opacity:1&quot;&gt;&lt;br/&gt;&lt;/font&gt;&lt;/div&gt;" tags="流程图" id="103">
          <mxCell style="verticalAlign=middle;align=center;overflow=width;vsdxID=282;fillColor=#FFFFFF;gradientColor=none;shape=stencil(1VPBDsIgDP0ajiwMsiWep/4HcWwjIiwF3fb3grg5ZzgZD95eX1/bPFoQq2zHe4EosQ7MWQyydh1ie0Sp1J0A6TxC7IBY1RgQLZirrmPc86AM6GJuocMY68qsKEIRJVMkyCM6Rq2SeqXNCUlLOZx8Bp7SosjKXRTDNFeXGS0jl2i4xCPmo7QYjONOGr0eRxSHVmA/DjeKt28pOwjRr+g87eXD9zz7CzuJt/yJGw9eK22kUvEilnxq33+3Q5J0vXHswfboPRU/DDvcAQ==);strokeColor=#000000;spacingTop=-1;spacingBottom=-1;spacingLeft=-1;spacingRight=-1;points=[[0,0.5,0],[0.5,0,0],[0.5,1,0],[1.07,0.5,0],[1,0.5,0]];labelBackgroundColor=none;rounded=0;html=1;whiteSpace=wrap;" parent="1" vertex="1">
            <mxGeometry x="1721" y="586" width="114" height="60" as="geometry" />
          </mxCell>
        </UserObject>
        <UserObject label="" tags="连接线" id="104">
          <mxCell style="vsdxID=240;edgeStyle=none;startArrow=none;endArrow=block;startSize=9;endSize=9;spacingTop=0;spacingBottom=0;spacingLeft=0;spacingRight=0;verticalAlign=middle;html=1;labelBackgroundColor=#ffffff;rounded=0;exitX=0.5;exitY=1;exitDx=0;exitDy=0;exitPerimeter=0;entryX=0.4802955665024631;entryY=0;entryDx=0;entryDy=0;entryPerimeter=0;" parent="1" source="59" target="85" edge="1">
            <mxGeometry relative="1" as="geometry">
              <mxPoint x="10" as="offset" />
              <Array as="points" />
            </mxGeometry>
          </mxCell>
        </UserObject>
        <UserObject label="" tags="连接线" id="105">
          <mxCell style="vsdxID=295;edgeStyle=none;startArrow=none;endArrow=block;startSize=9;endSize=9;spacingTop=0;spacingBottom=0;spacingLeft=0;spacingRight=0;verticalAlign=middle;html=1;labelBackgroundColor=#ffffff;rounded=0;exitX=0.5013333333333333;exitY=1;exitDx=0;exitDy=0;exitPerimeter=0;entryX=0.5013333333333333;entryY=0;entryDx=0;entryDy=0;entryPerimeter=0;" parent="1" source="15" target="61" edge="1">
            <mxGeometry relative="1" as="geometry">
              <mxPoint x="10" y="-1" as="offset" />
              <Array as="points" />
            </mxGeometry>
          </mxCell>
        </UserObject>
        <UserObject label="" tags="连接线" id="106">
          <mxCell style="vsdxID=294;edgeStyle=none;startArrow=none;endArrow=block;startSize=9;endSize=9;spacingTop=0;spacingBottom=0;spacingLeft=0;spacingRight=0;verticalAlign=middle;html=1;labelBackgroundColor=#ffffff;rounded=0;exitX=0.5013333333333333;exitY=1;exitDx=0;exitDy=0;exitPerimeter=0;entryX=0.5013333333333333;entryY=0;entryDx=0;entryDy=0;entryPerimeter=0;" parent="1" source="38" target="15" edge="1">
            <mxGeometry relative="1" as="geometry">
              <mxPoint x="10" as="offset" />
              <Array as="points" />
            </mxGeometry>
          </mxCell>
        </UserObject>
        <UserObject label="" tags="连接线" id="107">
          <mxCell style="vsdxID=293;edgeStyle=none;startArrow=none;endArrow=block;startSize=9;endSize=9;spacingTop=0;spacingBottom=0;spacingLeft=0;spacingRight=0;verticalAlign=middle;html=1;labelBackgroundColor=#ffffff;rounded=0;exitX=0.5013333333333333;exitY=1;exitDx=0;exitDy=0;exitPerimeter=0;entryX=0.5013333333333333;entryY=0;entryDx=0;entryDy=0;entryPerimeter=0;" parent="1" source="33" target="38" edge="1">
            <mxGeometry relative="1" as="geometry">
              <mxPoint x="10" as="offset" />
              <Array as="points" />
            </mxGeometry>
          </mxCell>
        </UserObject>
        <UserObject label="" tags="连接线" id="108">
          <mxCell style="vsdxID=292;edgeStyle=none;startArrow=none;endArrow=block;startSize=9;endSize=9;spacingTop=0;spacingBottom=0;spacingLeft=0;spacingRight=0;verticalAlign=middle;html=1;labelBackgroundColor=#ffffff;rounded=0;exitX=0.5013333333333333;exitY=1;exitDx=0;exitDy=0;exitPerimeter=0;entryX=0.5013333333333333;entryY=0;entryDx=0;entryDy=0;entryPerimeter=0;" parent="1" source="27" target="33" edge="1">
            <mxGeometry relative="1" as="geometry">
              <mxPoint x="10" as="offset" />
              <Array as="points" />
            </mxGeometry>
          </mxCell>
        </UserObject>
        <UserObject label="" tags="连接线" id="109">
          <mxCell style="vsdxID=291;edgeStyle=none;startArrow=none;endArrow=block;startSize=9;endSize=9;spacingTop=0;spacingBottom=0;spacingLeft=0;spacingRight=0;verticalAlign=middle;html=1;labelBackgroundColor=#ffffff;rounded=0;exitX=0.5013333333333333;exitY=1;exitDx=0;exitDy=0;exitPerimeter=0;entryX=0.5013333333333333;entryY=0;entryDx=0;entryDy=0;entryPerimeter=0;" parent="1" source="20" target="27" edge="1">
            <mxGeometry relative="1" as="geometry">
              <mxPoint x="10" as="offset" />
              <Array as="points" />
            </mxGeometry>
          </mxCell>
        </UserObject>
        <mxCell id="110" parent="1" vertex="1">
          <mxGeometry x="1078" y="364" as="geometry" />
        </mxCell>
        <UserObject label="" tags="连接线" id="111">
          <mxCell style="vsdxID=260;edgeStyle=none;startArrow=none;endArrow=block;startSize=9;endSize=9;spacingTop=0;spacingBottom=0;spacingLeft=0;spacingRight=0;verticalAlign=middle;html=1;labelBackgroundColor=#ffffff;rounded=0;exitX=0.4827586206896552;exitY=1;exitDx=0;exitDy=0;exitPerimeter=0;" parent="1" source="75" target="110" edge="1">
            <mxGeometry relative="1" as="geometry">
              <mxPoint x="10" y="-1" as="offset" />
              <Array as="points" />
            </mxGeometry>
          </mxCell>
        </UserObject>
        <UserObject label="" tags="连接线" id="112">
          <mxCell style="vsdxID=262;edgeStyle=none;startArrow=none;endArrow=block;startSize=9;endSize=9;spacingTop=0;spacingBottom=0;spacingLeft=0;spacingRight=0;verticalAlign=middle;html=1;labelBackgroundColor=#ffffff;rounded=0;exitX=0.4852216748768473;exitY=1;exitDx=0;exitDy=0;exitPerimeter=0;entryX=0.4852216748768473;entryY=0;entryDx=0;entryDy=0;entryPerimeter=0;" parent="1" source="68" target="93" edge="1">
            <mxGeometry relative="1" as="geometry">
              <mxPoint x="10" as="offset" />
              <Array as="points" />
            </mxGeometry>
          </mxCell>
        </UserObject>
        <mxCell id="113" parent="1" vertex="1">
          <mxGeometry x="1078" y="599" as="geometry" />
        </mxCell>
        <UserObject label="" tags="连接线" id="114">
          <mxCell style="vsdxID=263;edgeStyle=none;startArrow=none;endArrow=block;startSize=9;endSize=9;spacingTop=0;spacingBottom=0;spacingLeft=0;spacingRight=0;verticalAlign=middle;html=1;labelBackgroundColor=#ffffff;rounded=0;exitX=0.4827586206896552;exitY=1;exitDx=0;exitDy=0;exitPerimeter=0;" parent="1" source="93" target="113" edge="1">
            <mxGeometry relative="1" as="geometry">
              <mxPoint x="10" as="offset" />
              <Array as="points" />
            </mxGeometry>
          </mxCell>
        </UserObject>
        <mxCell id="115" parent="1" vertex="1">
          <mxGeometry x="1978" y="575" as="geometry" />
        </mxCell>
        <UserObject label="" tags="连接线" id="116">
          <mxCell style="vsdxID=287;edgeStyle=none;startArrow=none;endArrow=block;startSize=9;endSize=9;spacingTop=0;spacingBottom=0;spacingLeft=0;spacingRight=0;verticalAlign=middle;html=1;labelBackgroundColor=#ffffff;rounded=0;exitX=0.44037780401416765;exitY=1;exitDx=0;exitDy=0;exitPerimeter=0;" parent="1" source="52" target="115" edge="1">
            <mxGeometry relative="1" as="geometry">
              <mxPoint x="10" y="-1" as="offset" />
              <Array as="points" />
            </mxGeometry>
          </mxCell>
        </UserObject>
        <mxCell id="117" parent="1" vertex="1">
          <mxGeometry x="2482" y="508" as="geometry" />
        </mxCell>
        <UserObject label="" tags="连接线" id="118">
          <mxCell style="vsdxID=288;edgeStyle=none;startArrow=none;endArrow=none;startSize=9;endSize=9;spacingTop=0;spacingBottom=0;spacingLeft=0;spacingRight=0;verticalAlign=middle;html=1;labelBackgroundColor=#ffffff;rounded=0;exitX=1;exitY=0.5061728395061729;exitDx=0;exitDy=0;exitPerimeter=0;" parent="1" source="52" target="117" edge="1">
            <mxGeometry relative="1" as="geometry">
              <mxPoint x="-1" as="offset" />
              <Array as="points" />
            </mxGeometry>
          </mxCell>
        </UserObject>
      </root>
    </mxGraphModel>
  </diagram>
</mxfile>
